<mxfile host="app.diagrams.net" modified="2022-12-11T11:11:00.992Z" agent="5.0 (Macintosh; Intel Mac OS X 10_15_7) AppleWebKit/537.36 (KHTML, like Gecko) Chrome/108.0.0.0 Safari/537.36" etag="TlIAvRLt3CG-Vr0yaTFF" version="20.6.0" type="github">
  <diagram name="Page-1" id="13e1069c-82ec-6db2-03f1-153e76fe0fe0">
    <mxGraphModel dx="5984" dy="1748" grid="1" gridSize="10" guides="1" tooltips="1" connect="1" arrows="1" fold="1" page="1" pageScale="1" pageWidth="1100" pageHeight="850" math="0" shadow="0">
      <root>
        <mxCell id="0" />
        <mxCell id="1" parent="0" />
        <mxCell id="u-6amZHOYb5FqeuUZx1L-84" value="" style="shape=mxgraph.mockup.containers.marginRect;rectMarginTop=10;strokeColor=#666666;strokeWidth=1;dashed=0;rounded=1;arcSize=5;recursiveResize=0;labelBackgroundColor=none;sketch=0;fillStyle=dashed;fillColor=#f5f5f5;fontColor=#333333;" parent="1" vertex="1">
          <mxGeometry x="-1570" y="470" width="2830" height="2390" as="geometry" />
        </mxCell>
        <mxCell id="ZvMLKBT_PyKlyKGR0UZF-8" value="" style="shape=mxgraph.mockup.containers.marginRect;rectMarginTop=10;strokeColor=#666666;strokeWidth=1;dashed=0;rounded=1;arcSize=5;recursiveResize=0;labelBackgroundColor=none;sketch=0;fillStyle=dashed;fontColor=#A680B8;fillColor=#CC0066;gradientColor=none;" parent="1" vertex="1">
          <mxGeometry x="3110" y="2687" width="850" height="810" as="geometry" />
        </mxCell>
        <mxCell id="ZvMLKBT_PyKlyKGR0UZF-9" value="ProductPackage" style="shape=rect;strokeColor=#b85450;fillColor=#f8cecc;strokeWidth=1;dashed=0;rounded=1;arcSize=20;fontSize=17;spacing=2;spacingTop=-2;align=left;autosize=1;spacingLeft=4;resizeWidth=0;resizeHeight=0;perimeter=none;labelBackgroundColor=none;sketch=0;fillStyle=auto;labelBorderColor=none;" parent="ZvMLKBT_PyKlyKGR0UZF-8" vertex="1">
          <mxGeometry y="4" width="150" height="30" as="geometry" />
        </mxCell>
        <mxCell id="ZvMLKBT_PyKlyKGR0UZF-5" value="" style="shape=mxgraph.mockup.containers.marginRect;rectMarginTop=10;strokeColor=#666666;strokeWidth=1;dashed=0;rounded=1;arcSize=5;recursiveResize=0;labelBackgroundColor=none;sketch=0;fillStyle=dashed;fontColor=#A680B8;fillColor=#33FF33;gradientColor=none;" parent="1" vertex="1">
          <mxGeometry x="2030" y="2686" width="770" height="730" as="geometry" />
        </mxCell>
        <mxCell id="ZvMLKBT_PyKlyKGR0UZF-6" value="CustomerPackage" style="shape=rect;strokeColor=#82b366;fillColor=#d5e8d4;strokeWidth=1;dashed=0;rounded=1;arcSize=20;fontSize=17;spacing=2;spacingTop=-2;align=left;autosize=1;spacingLeft=4;resizeWidth=0;resizeHeight=0;perimeter=none;labelBackgroundColor=none;sketch=0;fillStyle=auto;labelBorderColor=none;" parent="ZvMLKBT_PyKlyKGR0UZF-5" vertex="1">
          <mxGeometry y="4" width="170" height="30" as="geometry" />
        </mxCell>
        <mxCell id="kNI0v0t7k7GR0xS2gEk9-157" style="edgeStyle=orthogonalEdgeStyle;orthogonalLoop=1;jettySize=auto;html=1;entryX=0.457;entryY=-0.018;entryDx=0;entryDy=0;entryPerimeter=0;fontFamily=Helvetica;fontSize=11;startArrow=none;startFill=0;endArrow=classicThin;endFill=1;dashed=1;rounded=0;" parent="1" source="kNI0v0t7k7GR0xS2gEk9-138" target="kNI0v0t7k7GR0xS2gEk9-145" edge="1">
          <mxGeometry relative="1" as="geometry" />
        </mxCell>
        <mxCell id="kNI0v0t7k7GR0xS2gEk9-159" style="edgeStyle=orthogonalEdgeStyle;orthogonalLoop=1;jettySize=auto;html=1;entryX=0.5;entryY=0;entryDx=0;entryDy=0;dashed=1;fontFamily=Helvetica;fontSize=11;startArrow=none;startFill=0;endArrow=classicThin;endFill=1;rounded=0;exitX=0.5;exitY=1;exitDx=0;exitDy=0;" parent="1" source="kNI0v0t7k7GR0xS2gEk9-138" target="kNI0v0t7k7GR0xS2gEk9-154" edge="1">
          <mxGeometry relative="1" as="geometry" />
        </mxCell>
        <mxCell id="5tz5ZhoiL6qwF5Wk2m4U-25" style="edgeStyle=orthogonalEdgeStyle;rounded=0;orthogonalLoop=1;jettySize=auto;html=1;entryX=0.5;entryY=0;entryDx=0;entryDy=0;fontSize=17;startArrow=none;startFill=0;endArrow=openThin;endFill=0;dashed=1;" parent="1" source="kNI0v0t7k7GR0xS2gEk9-138" target="5tz5ZhoiL6qwF5Wk2m4U-13" edge="1">
          <mxGeometry relative="1" as="geometry" />
        </mxCell>
        <mxCell id="kNI0v0t7k7GR0xS2gEk9-138" value="&lt;p style=&quot;text-align: center; margin: 4px 0px 0px;&quot;&gt;&lt;span style=&quot;font-weight: 700;&quot;&gt;&amp;lt;&amp;lt;Design&amp;gt;&amp;gt;&lt;/span&gt;&lt;/p&gt;&lt;p style=&quot;text-align: center; margin: 4px 0px 0px;&quot;&gt;&lt;span style=&quot;font-weight: 700; background-color: initial;&quot;&gt;:RecommendationGUI&lt;/span&gt;&lt;/p&gt;&lt;hr size=&quot;1&quot;&gt;&lt;p&gt;&lt;/p&gt;&lt;p&gt;&lt;/p&gt;&lt;hr size=&quot;1&quot;&gt;&lt;p style=&quot;margin:0px;margin-left:4px;&quot;&gt;+&amp;nbsp;onClick()&lt;br&gt;&lt;/p&gt;&lt;p style=&quot;margin:0px;margin-left:4px;&quot;&gt;&lt;span style=&quot;font-family: Verdana; text-align: center;&quot;&gt;+ CapturePhoto()&lt;/span&gt;&lt;br&gt;&lt;/p&gt;&lt;div style=&quot;padding: 0px; margin: 0px;&quot;&gt;&lt;br style=&quot;padding: 0px; margin: 0px;&quot;&gt;&lt;/div&gt;" style="verticalAlign=top;align=left;overflow=fill;fontSize=12;fontFamily=Helvetica;html=1;rounded=0;fillStyle=solid;strokeColor=#9673a6;fillColor=#e1d5e7;" parent="1" vertex="1">
          <mxGeometry x="2300" y="2485" width="190" height="140" as="geometry" />
        </mxCell>
        <mxCell id="kNI0v0t7k7GR0xS2gEk9-161" style="edgeStyle=orthogonalEdgeStyle;orthogonalLoop=1;jettySize=auto;html=1;entryX=0.5;entryY=1;entryDx=0;entryDy=0;dashed=1;fontFamily=Helvetica;fontSize=11;startArrow=none;startFill=0;endArrow=classicThin;endFill=1;exitX=0.5;exitY=0;exitDx=0;exitDy=0;curved=1;" parent="1" source="kNI0v0t7k7GR0xS2gEk9-144" target="kNI0v0t7k7GR0xS2gEk9-155" edge="1">
          <mxGeometry relative="1" as="geometry" />
        </mxCell>
        <mxCell id="kNI0v0t7k7GR0xS2gEk9-144" value="&lt;p style=&quot;margin:0px;margin-top:4px;text-align:center;&quot;&gt;&lt;span style=&quot;font-weight: 700;&quot;&gt;Product&lt;/span&gt;&lt;br&gt;&lt;/p&gt;&lt;hr size=&quot;1&quot;&gt;&lt;p style=&quot;margin:0px;margin-left:4px;&quot;&gt;&lt;span style=&quot;background-color: initial;&quot;&gt;- Brand&amp;nbsp;&lt;/span&gt;&lt;br&gt;&lt;/p&gt;&lt;p style=&quot;margin:0px;margin-left:4px;&quot;&gt;- Category&lt;br style=&quot;padding: 0px; margin: 0px;&quot;&gt;- ProductPrice&lt;br style=&quot;padding: 0px; margin: 0px;&quot;&gt;- Color&lt;/p&gt;&lt;p style=&quot;margin:0px;margin-left:4px;&quot;&gt;- Notification&lt;/p&gt;&lt;p style=&quot;margin:0px;margin-left:4px;&quot;&gt;- Ingredient&lt;/p&gt;&lt;hr size=&quot;1&quot;&gt;&lt;p style=&quot;margin:0px;margin-left:4px;&quot;&gt;&lt;span style=&quot;font-family: Verdana; text-align: center;&quot;&gt;+ displayProductList()&lt;/span&gt;&lt;br&gt;&lt;/p&gt;" style="verticalAlign=top;align=left;overflow=fill;fontSize=12;fontFamily=Helvetica;html=1;rounded=0;fillStyle=solid;strokeColor=#6c8ebf;fillColor=#dae8fc;" parent="1" vertex="1">
          <mxGeometry x="3350" y="2766" width="190" height="190" as="geometry" />
        </mxCell>
        <mxCell id="kNI0v0t7k7GR0xS2gEk9-145" value="&lt;p style=&quot;margin:0px;margin-top:4px;text-align:center;&quot;&gt;&lt;b&gt;Survey&lt;/b&gt;&lt;/p&gt;&lt;hr size=&quot;1&quot;&gt;&lt;p style=&quot;margin:0px;margin-left:4px;&quot;&gt;&lt;span style=&quot;background-color: initial;&quot;&gt;- Condition&lt;br&gt;&lt;/span&gt;&lt;/p&gt;&lt;p style=&quot;margin:0px;margin-left:4px;&quot;&gt;&lt;span style=&quot;background-color: initial;&quot;&gt;- Brand&lt;/span&gt;&lt;/p&gt;&lt;p style=&quot;margin:0px;margin-left:4px;&quot;&gt;&lt;span style=&quot;background-color: initial;&quot;&gt;- PriceRange&lt;/span&gt;&lt;/p&gt;&lt;p style=&quot;margin:0px;margin-left:4px;&quot;&gt;&lt;span style=&quot;background-color: initial;&quot;&gt;- Purpose&lt;/span&gt;&lt;/p&gt;&lt;p style=&quot;margin:0px;margin-left:4px;&quot;&gt;&lt;span style=&quot;background-color: initial;&quot;&gt;- Occasion&lt;/span&gt;&lt;/p&gt;&lt;hr size=&quot;1&quot;&gt;&lt;p style=&quot;margin:0px;margin-left:4px;&quot;&gt;&lt;/p&gt;&lt;span style=&quot;font-family: Verdana; text-align: center;&quot;&gt;+ getSurveyResult(Product,Lipstick)&lt;br&gt;+&amp;nbsp;&lt;/span&gt;&lt;span style=&quot;font-family: Verdana; text-align: center;&quot;&gt;onClick&lt;/span&gt;&lt;span style=&quot;font-family: Verdana; text-align: center;&quot;&gt;(Survey)&lt;/span&gt;&lt;span style=&quot;font-family: Verdana; text-align: center;&quot;&gt;&lt;br&gt;&lt;/span&gt;" style="verticalAlign=top;align=left;overflow=fill;fontSize=12;fontFamily=Helvetica;html=1;rounded=0;fillStyle=solid;strokeColor=#6c8ebf;fillColor=#dae8fc;" parent="1" vertex="1">
          <mxGeometry x="2090" y="2765" width="230" height="190" as="geometry" />
        </mxCell>
        <mxCell id="kNI0v0t7k7GR0xS2gEk9-160" style="edgeStyle=orthogonalEdgeStyle;rounded=0;orthogonalLoop=1;jettySize=auto;html=1;exitX=0.5;exitY=1;exitDx=0;exitDy=0;dashed=1;fontFamily=Helvetica;fontSize=11;startArrow=none;startFill=0;endArrow=classicThin;endFill=1;entryX=0.5;entryY=0;entryDx=0;entryDy=0;" parent="1" source="kNI0v0t7k7GR0xS2gEk9-154" target="kNI0v0t7k7GR0xS2gEk9-156" edge="1">
          <mxGeometry relative="1" as="geometry">
            <mxPoint x="3013" y="2605" as="targetPoint" />
          </mxGeometry>
        </mxCell>
        <mxCell id="kNI0v0t7k7GR0xS2gEk9-154" value="&lt;p style=&quot;margin:0px;margin-top:4px;text-align:center;&quot;&gt;&lt;b&gt;FaceAnalyze&lt;/b&gt;&lt;/p&gt;&lt;hr size=&quot;1&quot;&gt;&lt;p style=&quot;margin:0px;margin-left:4px;&quot;&gt;- FaceShape&lt;br style=&quot;padding: 0px; margin: 0px;&quot;&gt;- SkinTone&lt;br style=&quot;padding: 0px; margin: 0px;&quot;&gt;- DarkSpot&lt;br style=&quot;padding: 0px; margin: 0px;&quot;&gt;- SkinType&lt;br style=&quot;padding: 0px; margin: 0px;&quot;&gt;- LipColor&lt;br style=&quot;padding: 0px; margin: 0px;&quot;&gt;- Eyebrow&lt;br&gt;&lt;/p&gt;&lt;p style=&quot;margin:0px;margin-left:4px;&quot;&gt;- SurveyResult&lt;/p&gt;&lt;p style=&quot;margin:0px;margin-left:4px;&quot;&gt;- Product&lt;/p&gt;&lt;hr size=&quot;1&quot;&gt;&lt;p style=&quot;margin:0px;margin-left:4px;&quot;&gt;&lt;/p&gt;&lt;span style=&quot;font-family: Verdana; text-align: center;&quot;&gt;+&amp;nbsp;&lt;/span&gt;&lt;span style=&quot;font-family: Verdana; text-align: center;&quot;&gt;getPhotoAnalyze()&lt;/span&gt;" style="verticalAlign=top;align=left;overflow=fill;fontSize=12;fontFamily=Helvetica;html=1;rounded=0;fillStyle=solid;strokeColor=#6c8ebf;fillColor=#dae8fc;" parent="1" vertex="1">
          <mxGeometry x="2840" y="2766" width="230" height="190" as="geometry" />
        </mxCell>
        <mxCell id="kNI0v0t7k7GR0xS2gEk9-155" value="&lt;p style=&quot;margin:0px;margin-top:4px;text-align:center;&quot;&gt;&lt;b&gt;&lt;span style=&quot;font-family: Verdana;&quot;&gt;&amp;lt;&amp;lt;Interface&amp;gt;&amp;gt;&lt;/span&gt;&lt;br style=&quot;font-family: Verdana;&quot;&gt;&lt;span style=&quot;font-family: Verdana;&quot;&gt;ProductDatabase&lt;/span&gt;&lt;br&gt;&lt;/b&gt;&lt;/p&gt;&lt;hr size=&quot;1&quot;&gt;&lt;p style=&quot;margin:0px;margin-left:4px;&quot;&gt;&lt;br&gt;&lt;/p&gt;&lt;hr size=&quot;1&quot;&gt;&lt;p style=&quot;margin:0px;margin-left:4px;&quot;&gt;&amp;nbsp;&lt;/p&gt;&lt;span style=&quot;text-align: center;&quot;&gt;&lt;div style=&quot;text-align: left;&quot;&gt;&lt;span style=&quot;background-color: initial;&quot;&gt;+&amp;nbsp;&lt;font face=&quot;Verdana&quot;&gt;getProductLists()&lt;/font&gt;&lt;/span&gt;&lt;span style=&quot;font-family: Verdana; background-color: initial;&quot;&gt;&amp;nbsp;&lt;/span&gt;&lt;/div&gt;&lt;/span&gt;&lt;span style=&quot;font-family: Verdana; text-align: center;&quot;&gt;+ requestProductCategory()&lt;/span&gt;" style="verticalAlign=top;align=left;overflow=fill;fontSize=12;fontFamily=Helvetica;html=1;rounded=0;fillStyle=solid;strokeColor=#d6b656;fillColor=#fff2cc;" parent="1" vertex="1">
          <mxGeometry x="3522.25" y="2495" width="227.75" height="150" as="geometry" />
        </mxCell>
        <mxCell id="kNI0v0t7k7GR0xS2gEk9-156" value="&lt;p style=&quot;margin:0px;margin-top:4px;text-align:center;&quot;&gt;&lt;b&gt;&lt;span style=&quot;font-family: Verdana; background-color: initial;&quot;&gt;&amp;lt;&amp;lt;Interface&amp;gt;&amp;gt;&lt;/span&gt;&lt;br&gt;&lt;/b&gt;&lt;/p&gt;&lt;p style=&quot;margin:0px;margin-top:4px;text-align:center;&quot;&gt;&lt;b&gt;&lt;font style=&quot;font-family: Verdana;&quot; face=&quot;Verdana&quot;&gt;AI_Analyze&lt;/font&gt;&lt;span style=&quot;font-family: Verdana;&quot;&gt;&lt;br&gt;&lt;/span&gt;&lt;/b&gt;&lt;/p&gt;&lt;hr size=&quot;1&quot;&gt;&lt;p style=&quot;margin:0px;margin-left:4px;&quot;&gt;&lt;br&gt;&lt;/p&gt;&lt;hr size=&quot;1&quot;&gt;&lt;p style=&quot;margin:0px;margin-left:4px;&quot;&gt;&lt;span style=&quot;background-color: initial;&quot;&gt;+&lt;/span&gt;&lt;font style=&quot;background-color: initial;&quot; face=&quot;Verdana&quot;&gt;getAIResult()&lt;/font&gt;&lt;br&gt;&lt;/p&gt;" style="verticalAlign=top;align=left;overflow=fill;fontSize=12;fontFamily=Helvetica;html=1;rounded=0;fillStyle=solid;strokeColor=#d6b656;fillColor=#fff2cc;" parent="1" vertex="1">
          <mxGeometry x="2867.5" y="3095" width="175" height="130" as="geometry" />
        </mxCell>
        <mxCell id="kNI0v0t7k7GR0xS2gEk9-176" value="&lt;font color=&quot;#ffffff&quot;&gt;t8&lt;/font&gt;" style="text;html=1;strokeColor=none;fillColor=none;align=center;verticalAlign=middle;whiteSpace=wrap;rounded=0;fillStyle=solid;fontFamily=Helvetica;fontSize=16;" parent="1" vertex="1">
          <mxGeometry x="1630" y="3340" width="60" height="30" as="geometry" />
        </mxCell>
        <mxCell id="meV7tn_NvdtixMvR8zqA-2" value="&lt;font style=&quot;font-size: 15px;&quot;&gt;CS682 O2&lt;br&gt;&lt;/font&gt;Chen Han&lt;br&gt;Assignment 6&lt;br&gt;Updated Class Model" style="shape=card;whiteSpace=wrap;html=1;fillColor=#f5f5f5;fontColor=#333333;strokeColor=#666666;" parent="1" vertex="1">
          <mxGeometry x="2110" y="2395" width="110" height="100" as="geometry" />
        </mxCell>
        <mxCell id="5tz5ZhoiL6qwF5Wk2m4U-12" value="&lt;p style=&quot;margin:0px;margin-top:4px;text-align:center;&quot;&gt;&lt;b&gt;&lt;span style=&quot;font-family: Verdana;&quot;&gt;&amp;lt;&amp;lt;Interface&amp;gt;&amp;gt;&lt;/span&gt;&lt;br style=&quot;font-family: Verdana;&quot;&gt;&lt;span style=&quot;font-family: Verdana;&quot;&gt;Camera&lt;/span&gt;&lt;br&gt;&lt;/b&gt;&lt;/p&gt;&lt;hr size=&quot;1&quot;&gt;&lt;p style=&quot;margin:0px;margin-left:4px;&quot;&gt;&lt;br&gt;&lt;/p&gt;&lt;hr size=&quot;1&quot;&gt;&lt;p style=&quot;margin:0px;margin-left:4px;&quot;&gt;&amp;nbsp;&lt;/p&gt;&lt;span style=&quot;text-align: center;&quot;&gt;&lt;div style=&quot;text-align: left;&quot;&gt;&lt;span style=&quot;background-color: initial;&quot;&gt;+ openCamera&lt;font face=&quot;Verdana&quot;&gt;()&lt;/font&gt;&lt;/span&gt;&lt;/div&gt;&lt;/span&gt;" style="verticalAlign=top;align=left;overflow=fill;fontSize=12;fontFamily=Helvetica;html=1;rounded=0;fillStyle=solid;strokeColor=#d6b656;fillColor=#fff2cc;" parent="1" vertex="1">
          <mxGeometry x="2117.5" y="3035" width="175" height="130" as="geometry" />
        </mxCell>
        <mxCell id="5tz5ZhoiL6qwF5Wk2m4U-13" value="&lt;p style=&quot;margin:0px;margin-top:4px;text-align:center;&quot;&gt;&lt;b&gt;Customer&lt;/b&gt;&lt;/p&gt;&lt;hr size=&quot;1&quot;&gt;&lt;p style=&quot;margin:0px;margin-left:4px;&quot;&gt;- CustomerID&lt;br style=&quot;padding: 0px; margin: 0px;&quot;&gt;- Name&lt;br style=&quot;padding: 0px; margin: 0px;&quot;&gt;- Address&lt;br style=&quot;padding: 0px; margin: 0px;&quot;&gt;- PhoneNumber&lt;br style=&quot;padding: 0px; margin: 0px;&quot;&gt;- Preference&lt;br style=&quot;padding: 0px; margin: 0px;&quot;&gt;- Email&lt;/p&gt;&lt;p style=&quot;margin:0px;margin-left:4px;&quot;&gt;- AccountBalance&lt;/p&gt;&lt;p style=&quot;margin:0px;margin-left:4px;&quot;&gt;- Survey&lt;/p&gt;&lt;p style=&quot;margin:0px;margin-left:4px;&quot;&gt;- Order&lt;/p&gt;&lt;p style=&quot;margin:0px;margin-left:4px;&quot;&gt;- SkinType&lt;/p&gt;&lt;p style=&quot;margin:0px;margin-left:4px;&quot;&gt;- FaceAnalyze&lt;/p&gt;&lt;hr size=&quot;1&quot;&gt;&lt;p style=&quot;margin:0px;margin-left:4px;&quot;&gt;&lt;/p&gt;" style="verticalAlign=top;align=left;overflow=fill;fontSize=12;fontFamily=Helvetica;html=1;rounded=0;fillStyle=solid;strokeColor=#6c8ebf;fillColor=#dae8fc;" parent="1" vertex="1">
          <mxGeometry x="2480" y="2765" width="230" height="220" as="geometry" />
        </mxCell>
        <mxCell id="5tz5ZhoiL6qwF5Wk2m4U-14" value="&lt;p style=&quot;margin:0px;margin-top:4px;text-align:center;&quot;&gt;&lt;b&gt;Order&lt;/b&gt;&lt;/p&gt;&lt;hr size=&quot;1&quot;&gt;&lt;p style=&quot;margin:0px;margin-left:4px;&quot;&gt;- OrderID&lt;br style=&quot;padding: 0px; margin: 0px;&quot;&gt;- OrderDate&lt;br style=&quot;padding: 0px; margin: 0px;&quot;&gt;- OrderPrice&lt;br style=&quot;padding: 0px; margin: 0px;&quot;&gt;- ShippingInfo&lt;br style=&quot;padding: 0px; margin: 0px;&quot;&gt;- Description&lt;br&gt;&lt;/p&gt;&lt;hr size=&quot;1&quot;&gt;&lt;p style=&quot;margin:0px;margin-left:4px;&quot;&gt;&lt;/p&gt;&lt;span style=&quot;font-family: Verdana; text-align: center;&quot;&gt;+ makeOrder&lt;/span&gt;&lt;span style=&quot;font-family: Verdana; text-align: center;&quot;&gt;()&lt;/span&gt;" style="verticalAlign=top;align=left;overflow=fill;fontSize=12;fontFamily=Helvetica;html=1;rounded=0;fillStyle=solid;strokeColor=#6c8ebf;fillColor=#dae8fc;" parent="1" vertex="1">
          <mxGeometry x="2480" y="3055" width="230" height="150" as="geometry" />
        </mxCell>
        <mxCell id="5tz5ZhoiL6qwF5Wk2m4U-15" style="edgeStyle=orthogonalEdgeStyle;rounded=0;orthogonalLoop=1;jettySize=auto;html=1;entryX=0.5;entryY=0;entryDx=0;entryDy=0;dashed=1;fontFamily=Helvetica;fontSize=11;startArrow=none;startFill=0;endArrow=classicThin;endFill=1;exitX=0.5;exitY=1;exitDx=0;exitDy=0;" parent="1" source="kNI0v0t7k7GR0xS2gEk9-145" target="5tz5ZhoiL6qwF5Wk2m4U-12" edge="1">
          <mxGeometry relative="1" as="geometry">
            <mxPoint x="1845" y="2965" as="sourcePoint" />
            <mxPoint x="1845" y="3045" as="targetPoint" />
          </mxGeometry>
        </mxCell>
        <mxCell id="5tz5ZhoiL6qwF5Wk2m4U-27" value="&lt;p style=&quot;margin:0px;margin-top:4px;text-align:center;&quot;&gt;&lt;b&gt;Category&lt;/b&gt;&lt;/p&gt;&lt;hr size=&quot;1&quot;&gt;&lt;p style=&quot;margin:0px;margin-left:4px;&quot;&gt;&lt;span style=&quot;background-color: initial;&quot;&gt;- CategoryID&lt;/span&gt;&lt;br&gt;&lt;/p&gt;&lt;p style=&quot;margin:0px;margin-left:4px;&quot;&gt;- Description&lt;/p&gt;&lt;hr size=&quot;1&quot;&gt;&lt;p style=&quot;margin:0px;margin-left:4px;&quot;&gt;&lt;span style=&quot;font-family: Verdana; text-align: center;&quot;&gt;+ getCategory()&lt;/span&gt;&lt;br&gt;&lt;/p&gt;" style="verticalAlign=top;align=left;overflow=fill;fontSize=12;fontFamily=Helvetica;html=1;rounded=0;fillStyle=solid;strokeColor=#6c8ebf;fillColor=#dae8fc;" parent="1" vertex="1">
          <mxGeometry x="3670" y="2769" width="190" height="120" as="geometry" />
        </mxCell>
        <mxCell id="5tz5ZhoiL6qwF5Wk2m4U-29" value="&lt;p style=&quot;margin:0px;margin-top:4px;text-align:center;&quot;&gt;&lt;b&gt;SkinType&lt;/b&gt;&lt;/p&gt;&lt;hr size=&quot;1&quot;&gt;&lt;p style=&quot;margin:0px;margin-left:4px;&quot;&gt;&lt;span style=&quot;background-color: initial;&quot;&gt;- SkinTypeID&lt;/span&gt;&lt;br&gt;&lt;/p&gt;&lt;p style=&quot;margin:0px;margin-left:4px;&quot;&gt;- SkinTypeDescription&lt;/p&gt;&lt;hr size=&quot;1&quot;&gt;&lt;p style=&quot;margin:0px;margin-left:4px;&quot;&gt;&lt;span style=&quot;font-family: Verdana; text-align: center;&quot;&gt;+ getSkinType()&lt;/span&gt;&lt;br&gt;&lt;/p&gt;" style="verticalAlign=top;align=left;overflow=fill;fontSize=12;fontFamily=Helvetica;html=1;rounded=0;fillStyle=solid;strokeColor=#6c8ebf;fillColor=#dae8fc;" parent="1" vertex="1">
          <mxGeometry x="2280" y="3215" width="190" height="120" as="geometry" />
        </mxCell>
        <mxCell id="5tz5ZhoiL6qwF5Wk2m4U-30" value="&lt;p style=&quot;margin:0px;margin-top:4px;text-align:center;&quot;&gt;&lt;b&gt;Ingredient&lt;/b&gt;&lt;/p&gt;&lt;hr size=&quot;1&quot;&gt;&lt;p style=&quot;margin:0px;margin-left:4px;&quot;&gt;&lt;span style=&quot;background-color: initial;&quot;&gt;- IngredientID&lt;/span&gt;&lt;br&gt;&lt;/p&gt;&lt;p style=&quot;margin:0px;margin-left:4px;&quot;&gt;- IngredientDescription&lt;/p&gt;&lt;hr size=&quot;1&quot;&gt;&lt;p style=&quot;margin:0px;margin-left:4px;&quot;&gt;&lt;span style=&quot;font-family: Verdana; text-align: center;&quot;&gt;+ getIngredientInfo()&lt;/span&gt;&lt;br&gt;&lt;/p&gt;" style="verticalAlign=top;align=left;overflow=fill;fontSize=12;fontFamily=Helvetica;html=1;rounded=0;fillStyle=solid;strokeColor=#6c8ebf;fillColor=#dae8fc;" parent="1" vertex="1">
          <mxGeometry x="3640" y="3120" width="190" height="120" as="geometry" />
        </mxCell>
        <mxCell id="5tz5ZhoiL6qwF5Wk2m4U-31" value="&lt;p style=&quot;margin:0px;margin-top:4px;text-align:center;&quot;&gt;&lt;b&gt;Allergy&lt;/b&gt;&lt;/p&gt;&lt;hr size=&quot;1&quot;&gt;&lt;p style=&quot;margin:0px;margin-left:4px;&quot;&gt;&lt;span style=&quot;background-color: initial;&quot;&gt;- AllergyID&lt;/span&gt;&lt;br&gt;&lt;/p&gt;&lt;p style=&quot;margin:0px;margin-left:4px;&quot;&gt;- AllergyDescription&lt;/p&gt;&lt;hr size=&quot;1&quot;&gt;&lt;p style=&quot;margin:0px;margin-left:4px;&quot;&gt;&lt;span style=&quot;font-family: Verdana; text-align: center;&quot;&gt;+ getAllergyInfo()&lt;/span&gt;&lt;br&gt;&lt;/p&gt;" style="verticalAlign=top;align=left;overflow=fill;fontSize=12;fontFamily=Helvetica;html=1;rounded=0;fillStyle=solid;strokeColor=#6c8ebf;fillColor=#dae8fc;" parent="1" vertex="1">
          <mxGeometry x="3215" y="3335" width="190" height="120" as="geometry" />
        </mxCell>
        <mxCell id="5tz5ZhoiL6qwF5Wk2m4U-32" value="&lt;p style=&quot;margin:0px;margin-top:4px;text-align:center;&quot;&gt;&lt;b&gt;Notification&lt;/b&gt;&lt;/p&gt;&lt;hr size=&quot;1&quot;&gt;&lt;p style=&quot;margin:0px;margin-left:4px;&quot;&gt;&lt;span style=&quot;background-color: initial;&quot;&gt;- NotificationID&lt;/span&gt;&lt;/p&gt;&amp;nbsp;- Notification&lt;span style=&quot;background-color: initial;&quot;&gt;Description&lt;br&gt;&lt;/span&gt;-&amp;nbsp; AllergyID&lt;br&gt;- ExpirationDate&lt;br&gt;- RecommendUsage&lt;br&gt;- StorageNotice.&lt;br&gt;&lt;hr size=&quot;1&quot;&gt;&lt;p style=&quot;margin:0px;margin-left:4px;&quot;&gt;&lt;span style=&quot;font-family: Verdana; text-align: center;&quot;&gt;+ getNotificationInfo()&lt;/span&gt;&lt;br&gt;&lt;/p&gt;" style="verticalAlign=top;align=left;overflow=fill;fontSize=12;fontFamily=Helvetica;html=1;rounded=0;fillStyle=solid;strokeColor=#6c8ebf;fillColor=#dae8fc;" parent="1" vertex="1">
          <mxGeometry x="3350" y="3065" width="190" height="160" as="geometry" />
        </mxCell>
        <mxCell id="5tz5ZhoiL6qwF5Wk2m4U-41" value="" style="endArrow=none;html=1;endSize=12;startArrow=diamondThin;startSize=14;startFill=1;edgeStyle=orthogonalEdgeStyle;rounded=1;fontSize=18;exitX=-0.01;exitY=0.436;exitDx=0;exitDy=0;entryX=1;entryY=0.5;entryDx=0;entryDy=0;endFill=0;exitPerimeter=0;" parent="1" source="5tz5ZhoiL6qwF5Wk2m4U-13" target="kNI0v0t7k7GR0xS2gEk9-145" edge="1">
          <mxGeometry relative="1" as="geometry">
            <mxPoint x="1970" y="3145" as="sourcePoint" />
            <mxPoint x="2130" y="3145" as="targetPoint" />
          </mxGeometry>
        </mxCell>
        <mxCell id="5tz5ZhoiL6qwF5Wk2m4U-42" value="1" style="edgeLabel;resizable=0;html=1;align=left;verticalAlign=top;strokeColor=default;fontSize=18;fillColor=default;" parent="5tz5ZhoiL6qwF5Wk2m4U-41" connectable="0" vertex="1">
          <mxGeometry x="-1" relative="1" as="geometry">
            <mxPoint x="-20" y="-35" as="offset" />
          </mxGeometry>
        </mxCell>
        <mxCell id="5tz5ZhoiL6qwF5Wk2m4U-43" value="0..*" style="edgeLabel;resizable=0;html=1;align=right;verticalAlign=top;strokeColor=default;fontSize=18;fillColor=default;" parent="5tz5ZhoiL6qwF5Wk2m4U-41" connectable="0" vertex="1">
          <mxGeometry x="1" relative="1" as="geometry">
            <mxPoint x="41" y="-35" as="offset" />
          </mxGeometry>
        </mxCell>
        <mxCell id="5tz5ZhoiL6qwF5Wk2m4U-45" value="" style="endArrow=none;html=1;endSize=12;startArrow=diamond;startSize=14;startFill=0;edgeStyle=orthogonalEdgeStyle;rounded=1;fontSize=18;entryX=0;entryY=0.5;entryDx=0;entryDy=0;endFill=0;fillColor=#f8cecc;strokeColor=#000000;strokeWidth=1;" parent="1" target="kNI0v0t7k7GR0xS2gEk9-154" edge="1">
          <mxGeometry relative="1" as="geometry">
            <mxPoint x="2710" y="2861" as="sourcePoint" />
            <mxPoint x="2330" y="2870" as="targetPoint" />
          </mxGeometry>
        </mxCell>
        <mxCell id="5tz5ZhoiL6qwF5Wk2m4U-46" value="1" style="edgeLabel;resizable=0;html=1;align=left;verticalAlign=top;strokeColor=default;fontSize=18;fillColor=default;" parent="5tz5ZhoiL6qwF5Wk2m4U-45" connectable="0" vertex="1">
          <mxGeometry x="-1" relative="1" as="geometry">
            <mxPoint x="12" y="-43" as="offset" />
          </mxGeometry>
        </mxCell>
        <mxCell id="5tz5ZhoiL6qwF5Wk2m4U-47" value="0..*" style="edgeLabel;resizable=0;html=1;align=right;verticalAlign=top;strokeColor=default;fontSize=18;fillColor=default;" parent="5tz5ZhoiL6qwF5Wk2m4U-45" connectable="0" vertex="1">
          <mxGeometry x="1" relative="1" as="geometry">
            <mxPoint x="-11" y="-35" as="offset" />
          </mxGeometry>
        </mxCell>
        <mxCell id="5tz5ZhoiL6qwF5Wk2m4U-48" value="" style="endArrow=none;html=1;endSize=12;startArrow=diamond;startSize=14;startFill=0;edgeStyle=orthogonalEdgeStyle;rounded=1;fontSize=18;exitX=0;exitY=0.75;exitDx=0;exitDy=0;entryX=0.5;entryY=0;entryDx=0;entryDy=0;endFill=0;" parent="1" source="5tz5ZhoiL6qwF5Wk2m4U-13" target="5tz5ZhoiL6qwF5Wk2m4U-29" edge="1">
          <mxGeometry relative="1" as="geometry">
            <mxPoint x="2490" y="2845" as="sourcePoint" />
            <mxPoint x="2330" y="2870" as="targetPoint" />
          </mxGeometry>
        </mxCell>
        <mxCell id="5tz5ZhoiL6qwF5Wk2m4U-49" value="1..*" style="edgeLabel;resizable=0;html=1;align=left;verticalAlign=top;strokeColor=default;fontSize=18;fillColor=default;" parent="5tz5ZhoiL6qwF5Wk2m4U-48" connectable="0" vertex="1">
          <mxGeometry x="-1" relative="1" as="geometry">
            <mxPoint x="-40" y="-35" as="offset" />
          </mxGeometry>
        </mxCell>
        <mxCell id="5tz5ZhoiL6qwF5Wk2m4U-50" value="1" style="edgeLabel;resizable=0;html=1;align=right;verticalAlign=top;strokeColor=default;fontSize=18;fillColor=default;" parent="5tz5ZhoiL6qwF5Wk2m4U-48" connectable="0" vertex="1">
          <mxGeometry x="1" relative="1" as="geometry">
            <mxPoint x="-5" y="-39" as="offset" />
          </mxGeometry>
        </mxCell>
        <mxCell id="5tz5ZhoiL6qwF5Wk2m4U-51" value="" style="endArrow=none;html=1;endSize=12;startArrow=diamond;startSize=14;startFill=0;edgeStyle=orthogonalEdgeStyle;rounded=1;fontSize=18;exitX=1;exitY=0.5;exitDx=0;exitDy=0;entryX=0.004;entryY=0.561;entryDx=0;entryDy=0;endFill=0;entryPerimeter=0;" parent="1" source="kNI0v0t7k7GR0xS2gEk9-154" target="kNI0v0t7k7GR0xS2gEk9-144" edge="1">
          <mxGeometry relative="1" as="geometry">
            <mxPoint x="2490" y="2900" as="sourcePoint" />
            <mxPoint x="2405" y="3225" as="targetPoint" />
          </mxGeometry>
        </mxCell>
        <mxCell id="5tz5ZhoiL6qwF5Wk2m4U-52" value="0..*" style="edgeLabel;resizable=0;html=1;align=left;verticalAlign=top;strokeColor=default;fontSize=18;fillColor=default;" parent="5tz5ZhoiL6qwF5Wk2m4U-51" connectable="0" vertex="1">
          <mxGeometry x="-1" relative="1" as="geometry">
            <mxPoint x="9" y="-35" as="offset" />
          </mxGeometry>
        </mxCell>
        <mxCell id="5tz5ZhoiL6qwF5Wk2m4U-53" value="1..*" style="edgeLabel;resizable=0;html=1;align=right;verticalAlign=top;strokeColor=default;fontSize=18;fillColor=default;" parent="5tz5ZhoiL6qwF5Wk2m4U-51" connectable="0" vertex="1">
          <mxGeometry x="1" relative="1" as="geometry">
            <mxPoint x="-5" y="-39" as="offset" />
          </mxGeometry>
        </mxCell>
        <mxCell id="5tz5ZhoiL6qwF5Wk2m4U-54" value="" style="endArrow=none;html=1;endSize=12;startArrow=diamond;startSize=14;startFill=0;edgeStyle=orthogonalEdgeStyle;rounded=1;fontSize=18;exitX=0.998;exitY=0.329;exitDx=0;exitDy=0;entryX=0;entryY=0.5;entryDx=0;entryDy=0;endFill=0;exitPerimeter=0;" parent="1" source="kNI0v0t7k7GR0xS2gEk9-144" target="5tz5ZhoiL6qwF5Wk2m4U-27" edge="1">
          <mxGeometry relative="1" as="geometry">
            <mxPoint x="3150" y="2870" as="sourcePoint" />
            <mxPoint x="3285" y="2860" as="targetPoint" />
          </mxGeometry>
        </mxCell>
        <mxCell id="5tz5ZhoiL6qwF5Wk2m4U-55" value="0..*" style="edgeLabel;resizable=0;html=1;align=left;verticalAlign=top;strokeColor=default;fontSize=18;fillColor=default;" parent="5tz5ZhoiL6qwF5Wk2m4U-54" connectable="0" vertex="1">
          <mxGeometry x="-1" relative="1" as="geometry">
            <mxPoint x="9" y="-35" as="offset" />
          </mxGeometry>
        </mxCell>
        <mxCell id="5tz5ZhoiL6qwF5Wk2m4U-56" value="1" style="edgeLabel;resizable=0;html=1;align=right;verticalAlign=top;strokeColor=default;fontSize=18;fillColor=default;" parent="5tz5ZhoiL6qwF5Wk2m4U-54" connectable="0" vertex="1">
          <mxGeometry x="1" relative="1" as="geometry">
            <mxPoint x="-5" y="-39" as="offset" />
          </mxGeometry>
        </mxCell>
        <mxCell id="5tz5ZhoiL6qwF5Wk2m4U-60" value="" style="endArrow=none;html=1;endSize=12;startArrow=diamondThin;startSize=14;startFill=1;edgeStyle=orthogonalEdgeStyle;rounded=1;fontSize=18;exitX=0.5;exitY=1;exitDx=0;exitDy=0;entryX=0.5;entryY=0;entryDx=0;entryDy=0;endFill=0;" parent="1" source="kNI0v0t7k7GR0xS2gEk9-144" target="5tz5ZhoiL6qwF5Wk2m4U-32" edge="1">
          <mxGeometry relative="1" as="geometry">
            <mxPoint x="2720" y="2845" as="sourcePoint" />
            <mxPoint x="2920" y="2870" as="targetPoint" />
          </mxGeometry>
        </mxCell>
        <mxCell id="5tz5ZhoiL6qwF5Wk2m4U-61" value="1" style="edgeLabel;resizable=0;html=1;align=left;verticalAlign=top;strokeColor=default;fontSize=18;fillColor=default;" parent="5tz5ZhoiL6qwF5Wk2m4U-60" connectable="0" vertex="1">
          <mxGeometry x="-1" relative="1" as="geometry">
            <mxPoint x="-25" y="-35" as="offset" />
          </mxGeometry>
        </mxCell>
        <mxCell id="5tz5ZhoiL6qwF5Wk2m4U-62" value="0..*" style="edgeLabel;resizable=0;html=1;align=right;verticalAlign=top;strokeColor=default;fontSize=18;fillColor=default;" parent="5tz5ZhoiL6qwF5Wk2m4U-60" connectable="0" vertex="1">
          <mxGeometry x="1" relative="1" as="geometry">
            <mxPoint x="-11" y="-35" as="offset" />
          </mxGeometry>
        </mxCell>
        <mxCell id="5tz5ZhoiL6qwF5Wk2m4U-63" value="" style="endArrow=none;html=1;endSize=12;startArrow=diamondThin;startSize=14;startFill=1;edgeStyle=orthogonalEdgeStyle;rounded=1;fontSize=18;exitX=1;exitY=0.75;exitDx=0;exitDy=0;endFill=0;" parent="1" source="kNI0v0t7k7GR0xS2gEk9-144" target="5tz5ZhoiL6qwF5Wk2m4U-30" edge="1">
          <mxGeometry relative="1" as="geometry">
            <mxPoint x="3285" y="2907.5" as="sourcePoint" />
            <mxPoint x="3255" y="3295" as="targetPoint" />
          </mxGeometry>
        </mxCell>
        <mxCell id="5tz5ZhoiL6qwF5Wk2m4U-64" value="1..*" style="edgeLabel;resizable=0;html=1;align=left;verticalAlign=top;strokeColor=default;fontSize=18;fillColor=default;" parent="5tz5ZhoiL6qwF5Wk2m4U-63" connectable="0" vertex="1">
          <mxGeometry x="-1" relative="1" as="geometry">
            <mxPoint x="13" as="offset" />
          </mxGeometry>
        </mxCell>
        <mxCell id="5tz5ZhoiL6qwF5Wk2m4U-65" value="1..*" style="edgeLabel;resizable=0;html=1;align=right;verticalAlign=top;strokeColor=default;fontSize=18;fillColor=default;" parent="5tz5ZhoiL6qwF5Wk2m4U-63" connectable="0" vertex="1">
          <mxGeometry x="1" relative="1" as="geometry">
            <mxPoint x="-11" y="-35" as="offset" />
          </mxGeometry>
        </mxCell>
        <mxCell id="5tz5ZhoiL6qwF5Wk2m4U-66" value="" style="endArrow=none;html=1;endSize=12;startArrow=diamondThin;startSize=14;startFill=1;edgeStyle=orthogonalEdgeStyle;rounded=1;dashed=1;fontSize=18;exitX=0.5;exitY=1;exitDx=0;exitDy=0;entryX=0.5;entryY=0;entryDx=0;entryDy=0;endFill=0;" parent="1" source="5tz5ZhoiL6qwF5Wk2m4U-13" target="5tz5ZhoiL6qwF5Wk2m4U-14" edge="1">
          <mxGeometry relative="1" as="geometry">
            <mxPoint x="2720" y="2885" as="sourcePoint" />
            <mxPoint x="2920" y="2870" as="targetPoint" />
          </mxGeometry>
        </mxCell>
        <mxCell id="5tz5ZhoiL6qwF5Wk2m4U-67" value="1" style="edgeLabel;resizable=0;html=1;align=left;verticalAlign=top;strokeColor=default;fontSize=18;fillColor=default;" parent="5tz5ZhoiL6qwF5Wk2m4U-66" connectable="0" vertex="1">
          <mxGeometry x="-1" relative="1" as="geometry">
            <mxPoint x="-25" as="offset" />
          </mxGeometry>
        </mxCell>
        <mxCell id="5tz5ZhoiL6qwF5Wk2m4U-68" value="0..*" style="edgeLabel;resizable=0;html=1;align=right;verticalAlign=top;strokeColor=default;fontSize=18;fillColor=default;" parent="5tz5ZhoiL6qwF5Wk2m4U-66" connectable="0" vertex="1">
          <mxGeometry x="1" relative="1" as="geometry">
            <mxPoint x="-11" y="-35" as="offset" />
          </mxGeometry>
        </mxCell>
        <mxCell id="5tz5ZhoiL6qwF5Wk2m4U-72" value="" style="endArrow=block;endFill=0;endSize=12;html=1;fontSize=18;fontColor=#FFFFFF;exitX=0.5;exitY=0;exitDx=0;exitDy=0;rounded=0;entryX=0.5;entryY=1;entryDx=0;entryDy=0;" parent="1" source="5tz5ZhoiL6qwF5Wk2m4U-31" target="5tz5ZhoiL6qwF5Wk2m4U-32" edge="1">
          <mxGeometry width="160" relative="1" as="geometry">
            <mxPoint x="3600" y="3095" as="sourcePoint" />
            <mxPoint x="3170" y="3205" as="targetPoint" />
            <Array as="points">
              <mxPoint x="3310" y="3265" />
              <mxPoint x="3445" y="3265" />
            </Array>
          </mxGeometry>
        </mxCell>
        <mxCell id="5tz5ZhoiL6qwF5Wk2m4U-74" value="&lt;p style=&quot;margin:0px;margin-top:4px;text-align:center;&quot;&gt;&lt;b&gt;StorageNotice&lt;/b&gt;&lt;/p&gt;&lt;hr size=&quot;1&quot;&gt;&lt;p style=&quot;margin:0px;margin-left:4px;&quot;&gt;&lt;span style=&quot;background-color: initial;&quot;&gt;- StorageNoticeID&lt;/span&gt;&lt;/p&gt;&lt;p style=&quot;margin:0px;margin-left:4px;&quot;&gt;&lt;span style=&quot;background-color: initial;&quot;&gt;- StorageDescription&lt;/span&gt;&lt;/p&gt;&lt;hr size=&quot;1&quot;&gt;&lt;p style=&quot;margin:0px;margin-left:4px;&quot;&gt;&lt;span style=&quot;font-family: Verdana; text-align: center;&quot;&gt;+ getStorageInfo()&lt;/span&gt;&lt;br&gt;&lt;/p&gt;" style="verticalAlign=top;align=left;overflow=fill;fontSize=12;fontFamily=Helvetica;html=1;rounded=0;fillStyle=solid;strokeColor=#6c8ebf;fillColor=#dae8fc;" parent="1" vertex="1">
          <mxGeometry x="3535.5" y="3335" width="190" height="120" as="geometry" />
        </mxCell>
        <mxCell id="5tz5ZhoiL6qwF5Wk2m4U-75" value="" style="endArrow=block;endFill=0;endSize=12;html=1;fontSize=18;fontColor=#FFFFFF;exitX=0.5;exitY=0;exitDx=0;exitDy=0;rounded=0;entryX=0.5;entryY=1;entryDx=0;entryDy=0;" parent="1" source="5tz5ZhoiL6qwF5Wk2m4U-74" target="5tz5ZhoiL6qwF5Wk2m4U-32" edge="1">
          <mxGeometry width="160" relative="1" as="geometry">
            <mxPoint x="3045" y="3315" as="sourcePoint" />
            <mxPoint x="3170" y="3205" as="targetPoint" />
            <Array as="points">
              <mxPoint x="3630" y="3265" />
              <mxPoint x="3445" y="3265" />
            </Array>
          </mxGeometry>
        </mxCell>
        <mxCell id="YKi7qVwE_VM10G75ooK7-1" value=":Product" style="shape=umlLifeline;perimeter=lifelinePerimeter;whiteSpace=wrap;html=1;container=0;collapsible=0;recursiveResize=0;outlineConnect=0;rounded=1;shadow=0;comic=0;labelBackgroundColor=none;strokeWidth=1;fontFamily=Verdana;fontSize=12;align=center;fillColor=#dae8fc;strokeColor=#6c8ebf;size=60;movable=1;resizable=1;rotatable=1;deletable=1;editable=1;connectable=1;" parent="1" vertex="1">
          <mxGeometry x="2270" y="750" width="120" height="580" as="geometry" />
        </mxCell>
        <mxCell id="YKi7qVwE_VM10G75ooK7-3" value="Student&lt;br&gt;(Potential User)" style="shape=umlActor;verticalLabelPosition=bottom;verticalAlign=top;html=1;fillColor=#f5f5f5;fontColor=#333333;strokeColor=#666666;" parent="1" vertex="1">
          <mxGeometry x="1865" y="720" width="30" height="60" as="geometry" />
        </mxCell>
        <mxCell id="YKi7qVwE_VM10G75ooK7-4" value="" style="html=1;points=[];perimeter=orthogonalPerimeter;rounded=0;shadow=0;comic=0;labelBackgroundColor=none;strokeWidth=1;fontFamily=Verdana;fontSize=12;align=center;fillColor=#d5e8d4;strokeColor=#82b366;" parent="1" vertex="1">
          <mxGeometry x="1875" y="860" width="10" height="1110" as="geometry" />
        </mxCell>
        <mxCell id="YKi7qVwE_VM10G75ooK7-5" style="edgeStyle=orthogonalEdgeStyle;rounded=0;orthogonalLoop=1;jettySize=auto;html=1;exitX=0.5;exitY=1;exitDx=0;exitDy=0;dashed=1;fontSize=11;endArrow=none;endFill=0;fillColor=#e1d5e7;strokeColor=#9673a6;" parent="1" source="YKi7qVwE_VM10G75ooK7-6" target="YKi7qVwE_VM10G75ooK7-7" edge="1">
          <mxGeometry relative="1" as="geometry">
            <mxPoint x="2094.1400000000003" y="852.1599999999999" as="targetPoint" />
          </mxGeometry>
        </mxCell>
        <mxCell id="YKi7qVwE_VM10G75ooK7-6" value="&lt;span style=&quot;font-family: Verdana;&quot;&gt;&amp;lt;&amp;lt;Design&amp;gt;&amp;gt;&lt;/span&gt;&lt;br style=&quot;font-family: Verdana;&quot;&gt;&lt;span style=&quot;font-family: Verdana;&quot;&gt;:RecommendationGUI&lt;/span&gt;" style="text;html=1;strokeColor=#9673a6;fillColor=#e1d5e7;align=center;verticalAlign=middle;whiteSpace=wrap;rounded=0;" parent="1" vertex="1">
          <mxGeometry x="2025" y="750" width="140" height="60" as="geometry" />
        </mxCell>
        <mxCell id="YKi7qVwE_VM10G75ooK7-7" value="" style="html=1;points=[];perimeter=orthogonalPerimeter;rounded=0;shadow=0;comic=0;labelBackgroundColor=none;strokeWidth=1;fontFamily=Verdana;fontSize=12;align=center;fillColor=#d5e8d4;strokeColor=#82b366;" parent="1" vertex="1">
          <mxGeometry x="2090" y="870" width="10" height="1110" as="geometry" />
        </mxCell>
        <mxCell id="YKi7qVwE_VM10G75ooK7-8" value="displayProductList()" style="html=1;verticalAlign=bottom;endArrow=block;labelBackgroundColor=none;fontFamily=Verdana;fontSize=12;entryX=-0.133;entryY=0.373;entryDx=0;entryDy=0;entryPerimeter=0;exitX=1.192;exitY=0.073;exitDx=0;exitDy=0;exitPerimeter=0;" parent="1" source="YKi7qVwE_VM10G75ooK7-7" target="YKi7qVwE_VM10G75ooK7-2" edge="1">
          <mxGeometry relative="1" as="geometry">
            <mxPoint x="2095" y="961" as="sourcePoint" />
            <mxPoint x="2530" y="960" as="targetPoint" />
          </mxGeometry>
        </mxCell>
        <mxCell id="YKi7qVwE_VM10G75ooK7-91" style="edgeStyle=orthogonalEdgeStyle;orthogonalLoop=1;jettySize=auto;html=1;startArrow=none;startFill=0;dashed=1;strokeColor=#d6b656;rounded=0;endArrow=none;endFill=0;fillColor=#fff2cc;" parent="1" source="YKi7qVwE_VM10G75ooK7-10" target="YKi7qVwE_VM10G75ooK7-13" edge="1">
          <mxGeometry relative="1" as="geometry" />
        </mxCell>
        <mxCell id="YKi7qVwE_VM10G75ooK7-10" value="&lt;span style=&quot;font-family: Verdana;&quot;&gt;&amp;lt;&amp;lt;Interface&amp;gt;&amp;gt;&lt;/span&gt;&lt;br style=&quot;font-family: Verdana;&quot;&gt;&lt;span style=&quot;font-family: Verdana;&quot;&gt;:ProductDatabase&lt;/span&gt;" style="text;html=1;strokeColor=#d6b656;fillColor=#fff2cc;align=center;verticalAlign=middle;whiteSpace=wrap;rounded=0;" parent="1" vertex="1">
          <mxGeometry x="2760" y="750" width="140" height="60" as="geometry" />
        </mxCell>
        <mxCell id="YKi7qVwE_VM10G75ooK7-11" style="edgeStyle=orthogonalEdgeStyle;rounded=0;orthogonalLoop=1;jettySize=auto;html=1;entryX=0.471;entryY=-0.002;entryDx=0;entryDy=0;entryPerimeter=0;dashed=1;fontSize=11;endArrow=none;endFill=0;" parent="1" source="YKi7qVwE_VM10G75ooK7-12" target="YKi7qVwE_VM10G75ooK7-19" edge="1">
          <mxGeometry relative="1" as="geometry" />
        </mxCell>
        <mxCell id="YKi7qVwE_VM10G75ooK7-12" value="&lt;font face=&quot;Verdana&quot;&gt;:Survey&lt;/font&gt;" style="text;html=1;strokeColor=#6c8ebf;fillColor=#dae8fc;align=center;verticalAlign=middle;whiteSpace=wrap;rounded=0;" parent="1" vertex="1">
          <mxGeometry x="3267.25" y="755" width="130" height="60" as="geometry" />
        </mxCell>
        <mxCell id="YKi7qVwE_VM10G75ooK7-13" value="" style="html=1;points=[];perimeter=orthogonalPerimeter;rounded=0;shadow=0;comic=0;labelBackgroundColor=none;strokeWidth=1;fontFamily=Verdana;fontSize=12;align=center;fillColor=#d5e8d4;strokeColor=#82b366;" parent="1" vertex="1">
          <mxGeometry x="2825" y="910" width="10" height="280" as="geometry" />
        </mxCell>
        <mxCell id="YKi7qVwE_VM10G75ooK7-14" value="getProductLists()" style="html=1;verticalAlign=bottom;endArrow=block;labelBackgroundColor=none;fontFamily=Verdana;fontSize=12;exitX=1.333;exitY=0.579;exitDx=0;exitDy=0;exitPerimeter=0;" parent="1" source="YKi7qVwE_VM10G75ooK7-2" edge="1">
          <mxGeometry relative="1" as="geometry">
            <mxPoint x="2540" y="990" as="sourcePoint" />
            <mxPoint x="2820" y="970" as="targetPoint" />
          </mxGeometry>
        </mxCell>
        <mxCell id="YKi7qVwE_VM10G75ooK7-15" value="Product lists" style="html=1;verticalAlign=bottom;endArrow=block;labelBackgroundColor=none;fontFamily=Verdana;fontSize=12;exitX=0;exitY=0.445;exitDx=0;exitDy=0;exitPerimeter=0;dashed=1;entryX=1.5;entryY=0.151;entryDx=0;entryDy=0;entryPerimeter=0;" parent="1" source="YKi7qVwE_VM10G75ooK7-13" target="YKi7qVwE_VM10G75ooK7-7" edge="1">
          <mxGeometry relative="1" as="geometry">
            <mxPoint x="2337.2" y="1118.73" as="sourcePoint" />
            <mxPoint x="2105" y="1052.9" as="targetPoint" />
          </mxGeometry>
        </mxCell>
        <mxCell id="YKi7qVwE_VM10G75ooK7-16" value="onClick&lt;br&gt;(Search,Recommendation)" style="html=1;verticalAlign=bottom;endArrow=block;labelBackgroundColor=none;fontFamily=Verdana;fontSize=12;exitX=0.933;exitY=0.065;exitDx=0;exitDy=0;exitPerimeter=0;" parent="1" edge="1">
          <mxGeometry relative="1" as="geometry">
            <mxPoint x="1884.33" y="938.5" as="sourcePoint" />
            <mxPoint x="2090" y="939" as="targetPoint" />
          </mxGeometry>
        </mxCell>
        <mxCell id="YKi7qVwE_VM10G75ooK7-17" value="onClick&lt;br&gt;(Product, Lipstick)" style="html=1;verticalAlign=bottom;endArrow=block;labelBackgroundColor=none;fontFamily=Verdana;fontSize=12;exitX=1.217;exitY=0.37;exitDx=0;exitDy=0;exitPerimeter=0;entryX=0.05;entryY=0.363;entryDx=0;entryDy=0;entryPerimeter=0;" parent="1" source="YKi7qVwE_VM10G75ooK7-4" target="YKi7qVwE_VM10G75ooK7-7" edge="1">
          <mxGeometry relative="1" as="geometry">
            <mxPoint x="1920" y="1432.1999999999998" as="sourcePoint" />
            <mxPoint x="2088" y="1432" as="targetPoint" />
          </mxGeometry>
        </mxCell>
        <mxCell id="YKi7qVwE_VM10G75ooK7-18" value="&amp;lt;&amp;lt;Interface&amp;gt;&amp;gt;&lt;br&gt;&lt;font face=&quot;Verdana&quot;&gt;:AI_Analyze&lt;/font&gt;" style="shape=umlLifeline;perimeter=lifelinePerimeter;whiteSpace=wrap;html=1;container=1;collapsible=0;recursiveResize=0;outlineConnect=0;rounded=1;shadow=0;comic=0;labelBackgroundColor=none;strokeWidth=1;fontFamily=Verdana;fontSize=12;align=center;fillColor=#fff2cc;strokeColor=#d6b656;size=60;movable=1;resizable=1;rotatable=1;deletable=1;editable=1;connectable=1;" parent="1" vertex="1">
          <mxGeometry x="3912.75" y="750" width="120" height="580" as="geometry" />
        </mxCell>
        <mxCell id="YKi7qVwE_VM10G75ooK7-19" value="" style="html=1;points=[];perimeter=orthogonalPerimeter;rounded=0;shadow=0;comic=0;labelBackgroundColor=none;strokeWidth=1;fontFamily=Verdana;fontSize=12;align=center;fillColor=#d5e8d4;strokeColor=#82b366;" parent="1" vertex="1">
          <mxGeometry x="3327.25" y="1240" width="10" height="130" as="geometry" />
        </mxCell>
        <mxCell id="YKi7qVwE_VM10G75ooK7-20" value="getSurveyResult(Product,Lipstick)" style="html=1;verticalAlign=bottom;endArrow=block;labelBackgroundColor=none;fontFamily=Verdana;fontSize=12;exitX=0.883;exitY=0.385;exitDx=0;exitDy=0;exitPerimeter=0;" parent="1" source="YKi7qVwE_VM10G75ooK7-7" target="YKi7qVwE_VM10G75ooK7-19" edge="1">
          <mxGeometry relative="1" as="geometry">
            <mxPoint x="2101.34" y="1298.0200000000002" as="sourcePoint" />
            <mxPoint x="2531.17" y="1298.0200000000002" as="targetPoint" />
          </mxGeometry>
        </mxCell>
        <mxCell id="YKi7qVwE_VM10G75ooK7-21" value="Survey Result" style="html=1;verticalAlign=bottom;endArrow=block;labelBackgroundColor=none;fontFamily=Verdana;fontSize=12;dashed=1;exitX=-0.008;exitY=0.65;exitDx=0;exitDy=0;exitPerimeter=0;" parent="1" source="YKi7qVwE_VM10G75ooK7-19" target="YKi7qVwE_VM10G75ooK7-7" edge="1">
          <mxGeometry relative="1" as="geometry">
            <mxPoint x="2555" y="1600.0000000000002" as="sourcePoint" />
            <mxPoint x="2330" y="1547" as="targetPoint" />
          </mxGeometry>
        </mxCell>
        <mxCell id="YKi7qVwE_VM10G75ooK7-22" value="getAIResult()" style="html=1;verticalAlign=bottom;endArrow=block;labelBackgroundColor=none;fontFamily=Verdana;fontSize=12;entryX=-0.192;entryY=0.261;entryDx=0;entryDy=0;entryPerimeter=0;" parent="1" source="YKi7qVwE_VM10G75ooK7-27" target="YKi7qVwE_VM10G75ooK7-37" edge="1">
          <mxGeometry relative="1" as="geometry">
            <mxPoint x="3642.2499999999995" y="1175.2499999999998" as="sourcePoint" />
            <mxPoint x="3812.25" y="1175" as="targetPoint" />
          </mxGeometry>
        </mxCell>
        <mxCell id="YKi7qVwE_VM10G75ooK7-23" value="AI Result" style="html=1;verticalAlign=bottom;endArrow=block;labelBackgroundColor=none;fontFamily=Verdana;fontSize=12;exitX=-0.346;exitY=0.739;exitDx=0;exitDy=0;exitPerimeter=0;dashed=1;" parent="1" source="YKi7qVwE_VM10G75ooK7-37" edge="1">
          <mxGeometry relative="1" as="geometry">
            <mxPoint x="3624.25" y="1443.3999999999999" as="sourcePoint" />
            <mxPoint x="3787.25" y="1662" as="targetPoint" />
          </mxGeometry>
        </mxCell>
        <mxCell id="YKi7qVwE_VM10G75ooK7-24" value="onClick&lt;br&gt;(GetPortfolio)" style="html=1;verticalAlign=bottom;endArrow=block;labelBackgroundColor=none;fontFamily=Verdana;fontSize=12;" parent="1" source="YKi7qVwE_VM10G75ooK7-4" edge="1">
          <mxGeometry relative="1" as="geometry">
            <mxPoint x="1890" y="1526" as="sourcePoint" />
            <mxPoint x="2090" y="1370" as="targetPoint" />
          </mxGeometry>
        </mxCell>
        <mxCell id="YKi7qVwE_VM10G75ooK7-25" style="edgeStyle=orthogonalEdgeStyle;rounded=0;orthogonalLoop=1;jettySize=auto;html=1;entryX=0.471;entryY=-0.002;entryDx=0;entryDy=0;entryPerimeter=0;dashed=1;fontSize=11;endArrow=none;endFill=0;" parent="1" source="YKi7qVwE_VM10G75ooK7-26" target="YKi7qVwE_VM10G75ooK7-27" edge="1">
          <mxGeometry relative="1" as="geometry" />
        </mxCell>
        <mxCell id="YKi7qVwE_VM10G75ooK7-26" value="&lt;font face=&quot;Verdana&quot;&gt;:FaceAnalyze&lt;/font&gt;" style="text;html=1;strokeColor=#6c8ebf;fillColor=#dae8fc;align=center;verticalAlign=middle;whiteSpace=wrap;rounded=0;" parent="1" vertex="1">
          <mxGeometry x="3707.25" y="755" width="130" height="60" as="geometry" />
        </mxCell>
        <mxCell id="YKi7qVwE_VM10G75ooK7-27" value="" style="html=1;points=[];perimeter=orthogonalPerimeter;rounded=0;shadow=0;comic=0;labelBackgroundColor=none;strokeWidth=1;fontFamily=Verdana;fontSize=12;align=center;fillColor=#d5e8d4;strokeColor=#82b366;" parent="1" vertex="1">
          <mxGeometry x="3767.25" y="1525" width="10" height="220" as="geometry" />
        </mxCell>
        <mxCell id="YKi7qVwE_VM10G75ooK7-28" value="CapturePhoto()" style="html=1;verticalAlign=bottom;endArrow=block;labelBackgroundColor=none;fontFamily=Verdana;fontSize=12;entryX=-0.117;entryY=0.602;entryDx=0;entryDy=0;entryPerimeter=0;exitX=1.05;exitY=0.609;exitDx=0;exitDy=0;exitPerimeter=0;" parent="1" source="YKi7qVwE_VM10G75ooK7-4" target="YKi7qVwE_VM10G75ooK7-7" edge="1">
          <mxGeometry relative="1" as="geometry">
            <mxPoint x="1880" y="1726" as="sourcePoint" />
            <mxPoint x="2080" y="1690" as="targetPoint" />
          </mxGeometry>
        </mxCell>
        <mxCell id="YKi7qVwE_VM10G75ooK7-29" value="getPhotoAnalyze()" style="html=1;verticalAlign=bottom;endArrow=block;labelBackgroundColor=none;fontFamily=Verdana;fontSize=12;entryX=0.5;entryY=0.318;entryDx=0;entryDy=0;entryPerimeter=0;" parent="1" source="YKi7qVwE_VM10G75ooK7-7" target="YKi7qVwE_VM10G75ooK7-27" edge="1">
          <mxGeometry relative="1" as="geometry">
            <mxPoint x="2099.9999999999995" y="1663.9300000000003" as="sourcePoint" />
            <mxPoint x="2980" y="1660" as="targetPoint" />
          </mxGeometry>
        </mxCell>
        <mxCell id="YKi7qVwE_VM10G75ooK7-30" value="Face Analyze Result" style="html=1;verticalAlign=bottom;endArrow=block;labelBackgroundColor=none;fontFamily=Verdana;fontSize=12;dashed=1;exitX=-0.147;exitY=0.83;exitDx=0;exitDy=0;exitPerimeter=0;entryX=1.133;entryY=0.286;entryDx=0;entryDy=0;entryPerimeter=0;" parent="1" source="YKi7qVwE_VM10G75ooK7-27" target="YKi7qVwE_VM10G75ooK7-38" edge="1">
          <mxGeometry relative="1" as="geometry">
            <mxPoint x="2997.96" y="1710.1" as="sourcePoint" />
            <mxPoint x="2530" y="1879" as="targetPoint" />
          </mxGeometry>
        </mxCell>
        <mxCell id="YKi7qVwE_VM10G75ooK7-31" value="&lt;span style=&quot;font-family: Arial, sans-serif; font-size: 14.6667px;&quot;&gt;The student logged into the app outside the model.&lt;/span&gt;" style="shape=note;whiteSpace=wrap;html=1;backgroundOutline=1;darkOpacity=0.05;rounded=0;fillStyle=solid;strokeColor=#d79b00;fontFamily=Helvetica;fontSize=11;fillColor=#ffe6cc;" parent="1" vertex="1">
          <mxGeometry x="1610" y="1420" width="185" height="170" as="geometry" />
        </mxCell>
        <mxCell id="YKi7qVwE_VM10G75ooK7-32" value="&lt;font style=&quot;font-size: 15px;&quot;&gt;CS682 O2&lt;br&gt;&lt;/font&gt;Chen Han&lt;br&gt;Assignment 6&lt;br&gt;New Sequence Diagram" style="shape=card;whiteSpace=wrap;html=1;fillColor=#f5f5f5;fontColor=#333333;strokeColor=#666666;" parent="1" vertex="1">
          <mxGeometry x="1650" y="650" width="130" height="100" as="geometry" />
        </mxCell>
        <mxCell id="YKi7qVwE_VM10G75ooK7-33" value="&amp;lt;&amp;lt;Interface&amp;gt;&amp;gt;&lt;br&gt;&lt;font face=&quot;Verdana&quot;&gt;:Camera&lt;/font&gt;" style="shape=umlLifeline;perimeter=lifelinePerimeter;whiteSpace=wrap;html=1;container=0;collapsible=0;recursiveResize=0;outlineConnect=0;rounded=1;shadow=0;comic=0;labelBackgroundColor=none;strokeWidth=1;fontFamily=Verdana;fontSize=12;align=center;fillColor=#fff2cc;strokeColor=#d6b656;size=60;movable=1;resizable=1;rotatable=1;deletable=1;editable=1;connectable=1;" parent="1" vertex="1">
          <mxGeometry x="3457.25" y="755" width="120" height="825" as="geometry" />
        </mxCell>
        <mxCell id="YKi7qVwE_VM10G75ooK7-35" value="openCamera()" style="html=1;verticalAlign=bottom;endArrow=block;labelBackgroundColor=none;fontFamily=Verdana;fontSize=12;exitX=1.05;exitY=0.495;exitDx=0;exitDy=0;exitPerimeter=0;" parent="1" source="YKi7qVwE_VM10G75ooK7-7" target="YKi7qVwE_VM10G75ooK7-34" edge="1">
          <mxGeometry relative="1" as="geometry">
            <mxPoint x="3357.25" y="1320.8300000000002" as="sourcePoint" />
            <mxPoint x="3628.5600000000004" y="1319.1799999999998" as="targetPoint" />
          </mxGeometry>
        </mxCell>
        <mxCell id="YKi7qVwE_VM10G75ooK7-36" value="Camera open" style="html=1;verticalAlign=bottom;endArrow=block;labelBackgroundColor=none;fontFamily=Verdana;fontSize=12;dashed=1;exitX=-0.171;exitY=0.906;exitDx=0;exitDy=0;exitPerimeter=0;entryX=1.05;entryY=0.555;entryDx=0;entryDy=0;entryPerimeter=0;" parent="1" source="YKi7qVwE_VM10G75ooK7-34" target="YKi7qVwE_VM10G75ooK7-7" edge="1">
          <mxGeometry relative="1" as="geometry">
            <mxPoint x="2990" y="1650" as="sourcePoint" />
            <mxPoint x="1880" y="1650" as="targetPoint" />
          </mxGeometry>
        </mxCell>
        <mxCell id="YKi7qVwE_VM10G75ooK7-37" value="" style="html=1;points=[];perimeter=orthogonalPerimeter;rounded=0;shadow=0;comic=0;labelBackgroundColor=none;strokeWidth=1;fontFamily=Verdana;fontSize=12;align=center;fillColor=#d5e8d4;strokeColor=#82b366;" parent="1" vertex="1">
          <mxGeometry x="3982.25" y="1595" width="10" height="90" as="geometry" />
        </mxCell>
        <mxCell id="YKi7qVwE_VM10G75ooK7-38" value="" style="html=1;points=[];perimeter=orthogonalPerimeter;rounded=0;shadow=0;comic=0;labelBackgroundColor=none;strokeWidth=1;fontFamily=Verdana;fontSize=12;align=center;fillColor=#d5e8d4;strokeColor=#82b366;" parent="1" vertex="1">
          <mxGeometry x="2530" y="1692.5" width="10" height="115" as="geometry" />
        </mxCell>
        <mxCell id="YKi7qVwE_VM10G75ooK7-39" value="Suggest Product" style="html=1;verticalAlign=bottom;endArrow=block;labelBackgroundColor=none;fontFamily=Verdana;fontSize=12;entryX=0.911;entryY=0.817;entryDx=0;entryDy=0;entryPerimeter=0;dashed=1;exitX=0;exitY=0.719;exitDx=0;exitDy=0;exitPerimeter=0;" parent="1" source="YKi7qVwE_VM10G75ooK7-38" target="YKi7qVwE_VM10G75ooK7-7" edge="1">
          <mxGeometry relative="1" as="geometry">
            <mxPoint x="2315" y="1900" as="sourcePoint" />
            <mxPoint x="2110" y="1900" as="targetPoint" />
          </mxGeometry>
        </mxCell>
        <mxCell id="YKi7qVwE_VM10G75ooK7-2" value="" style="html=1;points=[];perimeter=orthogonalPerimeter;rounded=0;shadow=0;comic=0;labelBackgroundColor=none;strokeWidth=1;fontFamily=Verdana;fontSize=12;align=center;fillColor=#d5e8d4;strokeColor=#82b366;" parent="1" vertex="1">
          <mxGeometry x="2325" y="910" width="10" height="110" as="geometry" />
        </mxCell>
        <mxCell id="YKi7qVwE_VM10G75ooK7-95" style="edgeStyle=orthogonalEdgeStyle;rounded=0;orthogonalLoop=1;jettySize=auto;html=1;dashed=1;strokeColor=#6c8ebf;startArrow=none;startFill=0;endArrow=none;endFill=0;fillColor=#dae8fc;" parent="1" source="YKi7qVwE_VM10G75ooK7-79" target="YKi7qVwE_VM10G75ooK7-80" edge="1">
          <mxGeometry relative="1" as="geometry" />
        </mxCell>
        <mxCell id="YKi7qVwE_VM10G75ooK7-79" value="&lt;font face=&quot;Verdana&quot;&gt;:Advertisment&lt;/font&gt;" style="text;html=1;strokeColor=#6c8ebf;fillColor=#dae8fc;align=center;verticalAlign=middle;whiteSpace=wrap;rounded=0;" parent="1" vertex="1">
          <mxGeometry x="2490" y="750" width="130" height="60" as="geometry" />
        </mxCell>
        <mxCell id="YKi7qVwE_VM10G75ooK7-80" value="" style="html=1;points=[];perimeter=orthogonalPerimeter;rounded=0;shadow=0;comic=0;labelBackgroundColor=none;strokeWidth=1;fontFamily=Verdana;fontSize=12;align=center;fillColor=#d5e8d4;strokeColor=#82b366;" parent="1" vertex="1">
          <mxGeometry x="2550" y="1060" width="10" height="130" as="geometry" />
        </mxCell>
        <mxCell id="YKi7qVwE_VM10G75ooK7-81" value="getProductAdvertisement()" style="html=1;verticalAlign=bottom;endArrow=block;labelBackgroundColor=none;fontFamily=Verdana;fontSize=12;entryX=0.067;entryY=0.305;entryDx=0;entryDy=0;entryPerimeter=0;exitX=1.192;exitY=0.205;exitDx=0;exitDy=0;exitPerimeter=0;" parent="1" source="YKi7qVwE_VM10G75ooK7-7" target="YKi7qVwE_VM10G75ooK7-80" edge="1">
          <mxGeometry relative="1" as="geometry">
            <mxPoint x="2100" y="1124.65" as="sourcePoint" />
            <mxPoint x="2540" y="1131.1499999999999" as="targetPoint" />
          </mxGeometry>
        </mxCell>
        <mxCell id="YKi7qVwE_VM10G75ooK7-82" value="requestProductCategory()" style="html=1;verticalAlign=bottom;endArrow=block;labelBackgroundColor=none;fontFamily=Verdana;fontSize=12;exitX=1.364;exitY=0.443;exitDx=0;exitDy=0;exitPerimeter=0;" parent="1" source="YKi7qVwE_VM10G75ooK7-80" edge="1">
          <mxGeometry relative="1" as="geometry">
            <mxPoint x="2285" y="1160" as="sourcePoint" />
            <mxPoint x="2830" y="1118" as="targetPoint" />
          </mxGeometry>
        </mxCell>
        <mxCell id="YKi7qVwE_VM10G75ooK7-84" value="display related advertisement" style="html=1;verticalAlign=bottom;endArrow=block;labelBackgroundColor=none;fontFamily=Verdana;fontSize=12;dashed=1;exitX=0.038;exitY=0.865;exitDx=0;exitDy=0;exitPerimeter=0;entryX=1.192;entryY=0.315;entryDx=0;entryDy=0;entryPerimeter=0;" parent="1" source="YKi7qVwE_VM10G75ooK7-94" target="YKi7qVwE_VM10G75ooK7-7" edge="1">
          <mxGeometry relative="1" as="geometry">
            <mxPoint x="3070" y="1200" as="sourcePoint" />
            <mxPoint x="2100" y="1200" as="targetPoint" />
          </mxGeometry>
        </mxCell>
        <mxCell id="YKi7qVwE_VM10G75ooK7-34" value="" style="html=1;points=[];perimeter=orthogonalPerimeter;rounded=0;shadow=0;comic=0;labelBackgroundColor=none;strokeWidth=1;fontFamily=Verdana;fontSize=12;align=center;fillColor=#d5e8d4;strokeColor=#82b366;" parent="1" vertex="1">
          <mxGeometry x="3512.25" y="1330" width="10" height="160" as="geometry" />
        </mxCell>
        <mxCell id="YKi7qVwE_VM10G75ooK7-97" style="edgeStyle=orthogonalEdgeStyle;curved=1;orthogonalLoop=1;jettySize=auto;html=1;exitX=1;exitY=0.25;exitDx=0;exitDy=0;entryX=0;entryY=0.5;entryDx=0;entryDy=0;dashed=1;strokeColor=default;startArrow=none;startFill=0;endArrow=open;endFill=0;" parent="1" source="YKi7qVwE_VM10G75ooK7-85" target="YKi7qVwE_VM10G75ooK7-96" edge="1">
          <mxGeometry relative="1" as="geometry" />
        </mxCell>
        <mxCell id="YKi7qVwE_VM10G75ooK7-85" value="&lt;p style=&quot;margin:0px;margin-top:4px;text-align:center;&quot;&gt;&lt;b&gt;Advertisement&lt;/b&gt;&lt;/p&gt;&lt;hr size=&quot;1&quot;&gt;&lt;p style=&quot;margin:0px;margin-left:4px;&quot;&gt;- AdvertisementCategory&lt;/p&gt;&lt;p style=&quot;margin:0px;margin-left:4px;&quot;&gt;- Advertisment&lt;br style=&quot;padding: 0px; margin: 0px;&quot;&gt;- ValidTime&lt;br style=&quot;padding: 0px; margin: 0px;&quot;&gt;- LinkedProductName&lt;br&gt;&lt;/p&gt;&lt;p style=&quot;margin:0px;margin-left:4px;&quot;&gt;- Product&lt;/p&gt;&lt;p style=&quot;margin:0px;margin-left:4px;&quot;&gt;- Duration&lt;/p&gt;&lt;hr size=&quot;1&quot;&gt;&lt;p style=&quot;margin:0px;margin-left:4px;&quot;&gt;&lt;/p&gt;&lt;span style=&quot;font-family: Verdana; text-align: center;&quot;&gt;+&amp;nbsp;&lt;/span&gt;&lt;span style=&quot;font-family: Verdana; text-align: center;&quot;&gt;getProductAdvertisement()&lt;br&gt;&lt;/span&gt;&lt;span style=&quot;font-family: Verdana; text-align: center;&quot;&gt;+ determineProductCategory()&lt;br&gt;+&amp;nbsp;&lt;/span&gt;&lt;span style=&quot;text-align: center;&quot;&gt;&lt;font style=&quot;font-size: 13px;&quot;&gt;playAdvertisement()&amp;nbsp;&lt;/font&gt;&lt;/span&gt;&lt;span style=&quot;font-family: Verdana; text-align: center;&quot;&gt;&lt;br&gt;&lt;br&gt;&lt;/span&gt;&lt;span style=&quot;font-family: Verdana; text-align: center;&quot;&gt;&lt;br&gt;&lt;/span&gt;" style="verticalAlign=top;align=left;overflow=fill;fontSize=12;fontFamily=Helvetica;html=1;rounded=0;fillStyle=solid;strokeColor=#6c8ebf;fillColor=#dae8fc;" parent="1" vertex="1">
          <mxGeometry x="2960" y="2335" width="230" height="190" as="geometry" />
        </mxCell>
        <mxCell id="YKi7qVwE_VM10G75ooK7-86" value="&lt;ol style=&quot;font-size: 18px;&quot;&gt;&lt;li style=&quot;&quot;&gt;&lt;font style=&quot;font-size: 18px;&quot;&gt;One Customer can have zero or many Orders. (1:M)&lt;/font&gt;&lt;/li&gt;&lt;ul style=&quot;&quot;&gt;&lt;li&gt;One order is associated with one customer&lt;/li&gt;&lt;li&gt;Order can not exist without Customer&lt;/li&gt;&lt;li&gt;The relationship is Composition&lt;/li&gt;&lt;/ul&gt;&lt;li style=&quot;&quot;&gt;&lt;span style=&quot;&quot;&gt;One Customer can take zero or many Surveys.(1:M)&lt;/span&gt;&lt;/li&gt;&lt;ul style=&quot;&quot;&gt;&lt;li&gt;&lt;span style=&quot;&quot;&gt;One Survey is associated with one Customer&lt;/span&gt;&lt;/li&gt;&lt;li&gt;Survey can not exist without Customer&lt;/li&gt;&lt;li&gt;The relationship is Composition&lt;/li&gt;&lt;/ul&gt;&lt;li style=&quot;&quot;&gt;&lt;font style=&quot;font-size: 18px;&quot;&gt;One Customer can have zero or many FaceAnalyze.(1:M)&lt;/font&gt;&lt;/li&gt;&lt;ul style=&quot;&quot;&gt;&lt;li&gt;&lt;font style=&quot;font-size: 18px;&quot;&gt;FaceAnalyze can exist without Customer&lt;/font&gt;&lt;/li&gt;&lt;li&gt;One FaceAnalyze is associated with only one Customer.&lt;/li&gt;&lt;li&gt;The relationship is Aggreagation&lt;/li&gt;&lt;/ul&gt;&lt;li style=&quot;&quot;&gt;One Customer has one SkinType (1:M)&lt;/li&gt;&lt;ul style=&quot;&quot;&gt;&lt;li&gt;One SkinType can related with zero or many Customers&lt;/li&gt;&lt;li&gt;SkinType can exist without Customer&lt;/li&gt;&lt;li&gt;The relationship is Aggregation&lt;/li&gt;&lt;/ul&gt;&lt;li style=&quot;&quot;&gt;&lt;span style=&quot;&quot;&gt;One FaceAnalyze suggests one or many Products. (M:N)&lt;/span&gt;&lt;/li&gt;&lt;ul style=&quot;&quot;&gt;&lt;li&gt;&lt;span style=&quot;&quot;&gt;FaceAnalyze can exist without Product so it&#39;s an association Relationship.&lt;/span&gt;&lt;/li&gt;&lt;li&gt;&lt;span style=&quot;&quot;&gt;One Product can be found in zero or many FaceAnalyze.&lt;/span&gt;&lt;/li&gt;&lt;li&gt;The relationship is Aggregation&lt;/li&gt;&lt;/ul&gt;&lt;li style=&quot;&quot;&gt;One Product has One Category(1:M)&lt;/li&gt;&lt;ul style=&quot;&quot;&gt;&lt;li&gt;One Category can exist without any Product&lt;/li&gt;&lt;li&gt;One Category can have zero or many Products&lt;/li&gt;&lt;li&gt;The relationship is Aggregation&lt;/li&gt;&lt;/ul&gt;&lt;li style=&quot;&quot;&gt;One Product can have zero or many Notifications (1:M)&lt;/li&gt;&lt;ul style=&quot;&quot;&gt;&lt;li&gt;&lt;span style=&quot;background-color: initial;&quot;&gt;Notification can not exist without product&amp;nbsp;&lt;/span&gt;&lt;/li&gt;&lt;li&gt;&lt;span style=&quot;background-color: initial;&quot;&gt;One Notification is related with one Product&lt;/span&gt;&lt;/li&gt;&lt;li&gt;The relationship is Composition&lt;/li&gt;&lt;/ul&gt;&lt;li style=&quot;&quot;&gt;One Product can have one more many Ingredients (M:N)&lt;/li&gt;&lt;ul style=&quot;&quot;&gt;&lt;li&gt;Ingredients cannot exist without Product&amp;nbsp;&lt;/li&gt;&lt;li&gt;One Ingredient can be found in zero or many Products&amp;nbsp;&lt;/li&gt;&lt;li&gt;The relationship is Composition&lt;/li&gt;&lt;/ul&gt;&lt;li&gt;Notification includes Allergy, product&amp;nbsp;&lt;span style=&quot;background-color: initial;&quot;&gt;ExpirationDate,&amp;nbsp;&lt;/span&gt;&lt;span style=&quot;background-color: initial;&quot;&gt;Official Recommend Usage,&amp;nbsp;&lt;/span&gt;&lt;span style=&quot;background-color: initial;&quot;&gt;StorageNotice, etc.&amp;nbsp;&lt;/span&gt;&lt;/li&gt;&lt;ul&gt;&lt;li&gt;Notification has Inheritance relationship with Allergy. As Allergy is a subclass of Notification.&amp;nbsp;&lt;/li&gt;&lt;li&gt;Notification has Inheritance relationship with StorageNotice. As StorageNotice&amp;nbsp;is a subclass of Notification.&amp;nbsp;&lt;/li&gt;&lt;/ul&gt;&lt;li&gt;One Advertisement can link with one or many products. One product can have only one advertisement (1:M).&amp;nbsp;&amp;nbsp;&lt;/li&gt;&lt;ul&gt;&lt;li&gt;One Advertisement&amp;nbsp;can exist without any Product&lt;/li&gt;&lt;li&gt;The relationship is Aggregation&lt;/li&gt;&lt;/ul&gt;&lt;/ol&gt;" style="text;html=1;align=left;verticalAlign=middle;whiteSpace=wrap;rounded=0;fillColor=#ffe6cc;strokeColor=#d79b00;" parent="1" vertex="1">
          <mxGeometry x="1485" y="2190" width="410" height="1470" as="geometry" />
        </mxCell>
        <mxCell id="YKi7qVwE_VM10G75ooK7-87" value="" style="endArrow=none;html=1;endSize=12;startArrow=diamondThin;startSize=14;startFill=0;edgeStyle=orthogonalEdgeStyle;fontSize=18;exitX=0.5;exitY=1;exitDx=0;exitDy=0;endFill=0;entryX=0.25;entryY=0;entryDx=0;entryDy=0;curved=1;" parent="1" source="YKi7qVwE_VM10G75ooK7-85" target="kNI0v0t7k7GR0xS2gEk9-144" edge="1">
          <mxGeometry relative="1" as="geometry">
            <mxPoint x="3550" y="2918.5" as="sourcePoint" />
            <mxPoint x="3745" y="3130" as="targetPoint" />
          </mxGeometry>
        </mxCell>
        <mxCell id="YKi7qVwE_VM10G75ooK7-88" value="1" style="edgeLabel;resizable=0;html=1;align=left;verticalAlign=top;strokeColor=default;fontSize=18;fillColor=default;" parent="YKi7qVwE_VM10G75ooK7-87" connectable="0" vertex="1">
          <mxGeometry x="-1" relative="1" as="geometry">
            <mxPoint x="13" as="offset" />
          </mxGeometry>
        </mxCell>
        <mxCell id="YKi7qVwE_VM10G75ooK7-89" value="1..*" style="edgeLabel;resizable=0;html=1;align=right;verticalAlign=top;strokeColor=default;fontSize=18;fillColor=default;" parent="YKi7qVwE_VM10G75ooK7-87" connectable="0" vertex="1">
          <mxGeometry x="1" relative="1" as="geometry">
            <mxPoint x="-11" y="-35" as="offset" />
          </mxGeometry>
        </mxCell>
        <mxCell id="YKi7qVwE_VM10G75ooK7-92" value="&lt;span style=&quot;font-family: Verdana;&quot;&gt;&amp;lt;&amp;lt;Interface&amp;gt;&amp;gt;&lt;/span&gt;&lt;br style=&quot;font-family: Verdana;&quot;&gt;&lt;span style=&quot;font-family: Verdana;&quot;&gt;:AdvertisingAPI&lt;/span&gt;" style="text;html=1;strokeColor=#d6b656;fillColor=#fff2cc;align=center;verticalAlign=middle;whiteSpace=wrap;rounded=0;" parent="1" vertex="1">
          <mxGeometry x="3020" y="750" width="140" height="60" as="geometry" />
        </mxCell>
        <mxCell id="YKi7qVwE_VM10G75ooK7-93" value="getCategoryRelatedAdvertisement()" style="html=1;verticalAlign=bottom;endArrow=block;labelBackgroundColor=none;fontFamily=Verdana;fontSize=12;" parent="1" target="YKi7qVwE_VM10G75ooK7-94" edge="1">
          <mxGeometry relative="1" as="geometry">
            <mxPoint x="2840" y="1130" as="sourcePoint" />
            <mxPoint x="3030" y="1140" as="targetPoint" />
          </mxGeometry>
        </mxCell>
        <mxCell id="YKi7qVwE_VM10G75ooK7-94" value="" style="html=1;points=[];perimeter=orthogonalPerimeter;rounded=0;shadow=0;comic=0;labelBackgroundColor=none;strokeWidth=1;fontFamily=Verdana;fontSize=12;align=center;fillColor=#d5e8d4;strokeColor=#82b366;" parent="1" vertex="1">
          <mxGeometry x="3080" y="1040" width="10" height="200" as="geometry" />
        </mxCell>
        <mxCell id="YKi7qVwE_VM10G75ooK7-96" value="&lt;p style=&quot;margin:0px;margin-top:4px;text-align:center;&quot;&gt;&lt;b&gt;&lt;span style=&quot;font-family: Verdana;&quot;&gt;&amp;lt;&amp;lt;Interface&amp;gt;&amp;gt;&lt;/span&gt;&lt;br style=&quot;font-family: Verdana;&quot;&gt;&lt;span style=&quot;font-family: Verdana;&quot;&gt;AdvertisingAPI&lt;/span&gt;&lt;br&gt;&lt;/b&gt;&lt;/p&gt;&lt;hr size=&quot;1&quot;&gt;&lt;p style=&quot;margin:0px;margin-left:4px;&quot;&gt;&lt;br&gt;&lt;/p&gt;&lt;hr size=&quot;1&quot;&gt;&lt;p style=&quot;margin:0px;margin-left:4px;&quot;&gt;&amp;nbsp;&lt;/p&gt;&lt;span style=&quot;text-align: center;&quot;&gt;&lt;div style=&quot;text-align: left;&quot;&gt;&lt;span style=&quot;font-family: Verdana; text-align: center;&quot;&gt;+getCategoryRelatedAdvertisement()&lt;/span&gt;&lt;br&gt;&lt;/div&gt;&lt;/span&gt;" style="verticalAlign=top;align=left;overflow=fill;fontSize=12;fontFamily=Helvetica;html=1;rounded=0;fillStyle=solid;strokeColor=#d6b656;fillColor=#fff2cc;" parent="1" vertex="1">
          <mxGeometry x="3295" y="2270" width="260" height="130" as="geometry" />
        </mxCell>
        <mxCell id="u-6amZHOYb5FqeuUZx1L-1" value="Student&lt;br&gt;(Potential User)" style="shape=umlActor;verticalLabelPosition=bottom;verticalAlign=top;html=1;fillColor=#f5f5f5;fontColor=#333333;strokeColor=#666666;" parent="1" vertex="1">
          <mxGeometry x="-130" y="790" width="30" height="60" as="geometry" />
        </mxCell>
        <mxCell id="u-6amZHOYb5FqeuUZx1L-2" style="edgeStyle=orthogonalEdgeStyle;rounded=0;orthogonalLoop=1;jettySize=auto;html=1;exitX=0.5;exitY=1;exitDx=0;exitDy=0;dashed=1;fontSize=11;endArrow=none;endFill=0;fillColor=#e1d5e7;strokeColor=#9673a6;" parent="1" source="u-6amZHOYb5FqeuUZx1L-3" edge="1">
          <mxGeometry relative="1" as="geometry">
            <mxPoint x="100" y="940" as="targetPoint" />
          </mxGeometry>
        </mxCell>
        <mxCell id="u-6amZHOYb5FqeuUZx1L-3" value="&lt;span style=&quot;font-family: Verdana;&quot;&gt;&amp;lt;&amp;lt;Design&amp;gt;&amp;gt;&lt;/span&gt;&lt;br style=&quot;font-family: Verdana;&quot;&gt;&lt;span style=&quot;font-family: Verdana;&quot;&gt;:RecommendationGUI&lt;/span&gt;" style="text;html=1;strokeColor=#9673a6;fillColor=#e1d5e7;align=center;verticalAlign=middle;whiteSpace=wrap;rounded=0;" parent="1" vertex="1">
          <mxGeometry x="30" y="820" width="140" height="60" as="geometry" />
        </mxCell>
        <mxCell id="u-6amZHOYb5FqeuUZx1L-4" value="displayProductList()" style="html=1;verticalAlign=bottom;endArrow=block;labelBackgroundColor=none;fontFamily=Verdana;fontSize=12;entryX=-0.133;entryY=0.373;entryDx=0;entryDy=0;entryPerimeter=0;exitX=1.192;exitY=0.073;exitDx=0;exitDy=0;exitPerimeter=0;" parent="1" target="u-6amZHOYb5FqeuUZx1L-11" edge="1">
          <mxGeometry relative="1" as="geometry">
            <mxPoint x="106.92000000000007" y="1021.0299999999997" as="sourcePoint" />
            <mxPoint x="535" y="1030" as="targetPoint" />
          </mxGeometry>
        </mxCell>
        <mxCell id="u-6amZHOYb5FqeuUZx1L-5" style="edgeStyle=orthogonalEdgeStyle;orthogonalLoop=1;jettySize=auto;html=1;startArrow=none;startFill=0;dashed=1;strokeColor=#d6b656;rounded=0;endArrow=none;endFill=0;fillColor=#fff2cc;" parent="1" source="u-6amZHOYb5FqeuUZx1L-6" target="u-6amZHOYb5FqeuUZx1L-7" edge="1">
          <mxGeometry relative="1" as="geometry" />
        </mxCell>
        <mxCell id="u-6amZHOYb5FqeuUZx1L-6" value="&lt;span style=&quot;font-family: Verdana;&quot;&gt;&amp;lt;&amp;lt;Interface&amp;gt;&amp;gt;&lt;/span&gt;&lt;br style=&quot;font-family: Verdana;&quot;&gt;&lt;span style=&quot;font-family: Verdana;&quot;&gt;:ProductDatabase&lt;/span&gt;" style="text;html=1;strokeColor=#d6b656;fillColor=#fff2cc;align=center;verticalAlign=middle;whiteSpace=wrap;rounded=0;" parent="1" vertex="1">
          <mxGeometry x="765" y="820" width="140" height="60" as="geometry" />
        </mxCell>
        <mxCell id="u-6amZHOYb5FqeuUZx1L-7" value="" style="html=1;points=[];perimeter=orthogonalPerimeter;rounded=0;shadow=0;comic=0;labelBackgroundColor=none;strokeWidth=1;fontFamily=Verdana;fontSize=12;align=center;fillColor=#d5e8d4;strokeColor=#82b366;" parent="1" vertex="1">
          <mxGeometry x="830" y="980" width="10" height="280" as="geometry" />
        </mxCell>
        <mxCell id="u-6amZHOYb5FqeuUZx1L-8" value="getProductLists()" style="html=1;verticalAlign=bottom;endArrow=block;labelBackgroundColor=none;fontFamily=Verdana;fontSize=12;exitX=1.333;exitY=0.579;exitDx=0;exitDy=0;exitPerimeter=0;" parent="1" source="u-6amZHOYb5FqeuUZx1L-11" edge="1">
          <mxGeometry relative="1" as="geometry">
            <mxPoint x="545" y="1060" as="sourcePoint" />
            <mxPoint x="825" y="1040" as="targetPoint" />
          </mxGeometry>
        </mxCell>
        <mxCell id="u-6amZHOYb5FqeuUZx1L-9" value="Product lists" style="html=1;verticalAlign=bottom;endArrow=block;labelBackgroundColor=none;fontFamily=Verdana;fontSize=12;exitX=0;exitY=0.445;exitDx=0;exitDy=0;exitPerimeter=0;dashed=1;entryX=1.5;entryY=0.151;entryDx=0;entryDy=0;entryPerimeter=0;" parent="1" source="u-6amZHOYb5FqeuUZx1L-7" edge="1">
          <mxGeometry relative="1" as="geometry">
            <mxPoint x="342.1999999999998" y="1188.73" as="sourcePoint" />
            <mxPoint x="110" y="1107.6099999999997" as="targetPoint" />
          </mxGeometry>
        </mxCell>
        <mxCell id="u-6amZHOYb5FqeuUZx1L-10" value="onClick&lt;br&gt;(Search,Recommendation)" style="html=1;verticalAlign=bottom;endArrow=block;labelBackgroundColor=none;fontFamily=Verdana;fontSize=12;exitX=0.933;exitY=0.065;exitDx=0;exitDy=0;exitPerimeter=0;" parent="1" edge="1">
          <mxGeometry relative="1" as="geometry">
            <mxPoint x="-110.67000000000007" y="1008.5" as="sourcePoint" />
            <mxPoint x="95" y="1009" as="targetPoint" />
          </mxGeometry>
        </mxCell>
        <mxCell id="u-6amZHOYb5FqeuUZx1L-11" value="" style="html=1;points=[];perimeter=orthogonalPerimeter;rounded=0;shadow=0;comic=0;labelBackgroundColor=none;strokeWidth=1;fontFamily=Verdana;fontSize=12;align=center;fillColor=#d5e8d4;strokeColor=#82b366;" parent="1" vertex="1">
          <mxGeometry x="330" y="980" width="10" height="110" as="geometry" />
        </mxCell>
        <mxCell id="u-6amZHOYb5FqeuUZx1L-12" style="edgeStyle=orthogonalEdgeStyle;rounded=0;orthogonalLoop=1;jettySize=auto;html=1;dashed=1;strokeColor=#6c8ebf;startArrow=none;startFill=0;endArrow=none;endFill=0;fillColor=#dae8fc;" parent="1" source="u-6amZHOYb5FqeuUZx1L-13" target="u-6amZHOYb5FqeuUZx1L-14" edge="1">
          <mxGeometry relative="1" as="geometry" />
        </mxCell>
        <mxCell id="u-6amZHOYb5FqeuUZx1L-13" value="&lt;font face=&quot;Verdana&quot;&gt;:Advertisment&lt;/font&gt;" style="text;html=1;strokeColor=#6c8ebf;fillColor=#dae8fc;align=center;verticalAlign=middle;whiteSpace=wrap;rounded=0;" parent="1" vertex="1">
          <mxGeometry x="495" y="820" width="130" height="60" as="geometry" />
        </mxCell>
        <mxCell id="u-6amZHOYb5FqeuUZx1L-14" value="" style="html=1;points=[];perimeter=orthogonalPerimeter;rounded=0;shadow=0;comic=0;labelBackgroundColor=none;strokeWidth=1;fontFamily=Verdana;fontSize=12;align=center;fillColor=#d5e8d4;strokeColor=#82b366;" parent="1" vertex="1">
          <mxGeometry x="555" y="1130" width="10" height="130" as="geometry" />
        </mxCell>
        <mxCell id="u-6amZHOYb5FqeuUZx1L-15" value="getProductAdvertisement()" style="html=1;verticalAlign=bottom;endArrow=block;labelBackgroundColor=none;fontFamily=Verdana;fontSize=12;entryX=0.067;entryY=0.305;entryDx=0;entryDy=0;entryPerimeter=0;exitX=1.192;exitY=0.205;exitDx=0;exitDy=0;exitPerimeter=0;" parent="1" target="u-6amZHOYb5FqeuUZx1L-14" edge="1">
          <mxGeometry relative="1" as="geometry">
            <mxPoint x="106.92000000000007" y="1167.5499999999997" as="sourcePoint" />
            <mxPoint x="545" y="1201.1499999999999" as="targetPoint" />
          </mxGeometry>
        </mxCell>
        <mxCell id="u-6amZHOYb5FqeuUZx1L-16" value="requestProductCategory()" style="html=1;verticalAlign=bottom;endArrow=block;labelBackgroundColor=none;fontFamily=Verdana;fontSize=12;exitX=1.364;exitY=0.443;exitDx=0;exitDy=0;exitPerimeter=0;" parent="1" source="u-6amZHOYb5FqeuUZx1L-14" edge="1">
          <mxGeometry relative="1" as="geometry">
            <mxPoint x="290" y="1230" as="sourcePoint" />
            <mxPoint x="835" y="1188" as="targetPoint" />
          </mxGeometry>
        </mxCell>
        <mxCell id="u-6amZHOYb5FqeuUZx1L-17" value="display related advertisement" style="html=1;verticalAlign=bottom;endArrow=block;labelBackgroundColor=none;fontFamily=Verdana;fontSize=12;dashed=1;exitX=0.038;exitY=0.865;exitDx=0;exitDy=0;exitPerimeter=0;entryX=1.192;entryY=0.315;entryDx=0;entryDy=0;entryPerimeter=0;" parent="1" source="u-6amZHOYb5FqeuUZx1L-20" edge="1">
          <mxGeometry relative="1" as="geometry">
            <mxPoint x="1075" y="1270" as="sourcePoint" />
            <mxPoint x="106.92000000000007" y="1289.65" as="targetPoint" />
          </mxGeometry>
        </mxCell>
        <mxCell id="u-6amZHOYb5FqeuUZx1L-18" value="&lt;span style=&quot;font-family: Verdana;&quot;&gt;&amp;lt;&amp;lt;Interface&amp;gt;&amp;gt;&lt;/span&gt;&lt;br style=&quot;font-family: Verdana;&quot;&gt;&lt;span style=&quot;font-family: Verdana;&quot;&gt;:AdvertisingAPI&lt;/span&gt;" style="text;html=1;strokeColor=#d6b656;fillColor=#fff2cc;align=center;verticalAlign=middle;whiteSpace=wrap;rounded=0;" parent="1" vertex="1">
          <mxGeometry x="1025" y="820" width="140" height="60" as="geometry" />
        </mxCell>
        <mxCell id="u-6amZHOYb5FqeuUZx1L-19" value="getCategoryRelatedAdvertisement()" style="html=1;verticalAlign=bottom;endArrow=block;labelBackgroundColor=none;fontFamily=Verdana;fontSize=12;" parent="1" target="u-6amZHOYb5FqeuUZx1L-20" edge="1">
          <mxGeometry relative="1" as="geometry">
            <mxPoint x="845" y="1200" as="sourcePoint" />
            <mxPoint x="1035" y="1210" as="targetPoint" />
          </mxGeometry>
        </mxCell>
        <mxCell id="u-6amZHOYb5FqeuUZx1L-20" value="" style="html=1;points=[];perimeter=orthogonalPerimeter;rounded=0;shadow=0;comic=0;labelBackgroundColor=none;strokeWidth=1;fontFamily=Verdana;fontSize=12;align=center;fillColor=#d5e8d4;strokeColor=#82b366;" parent="1" vertex="1">
          <mxGeometry x="1085" y="1110" width="10" height="200" as="geometry" />
        </mxCell>
        <mxCell id="u-6amZHOYb5FqeuUZx1L-21" value=":Product" style="shape=umlLifeline;perimeter=lifelinePerimeter;whiteSpace=wrap;html=1;container=0;collapsible=0;recursiveResize=0;outlineConnect=0;rounded=1;shadow=0;comic=0;labelBackgroundColor=none;strokeWidth=1;fontFamily=Verdana;fontSize=12;align=center;fillColor=#dae8fc;strokeColor=#6c8ebf;size=60;movable=1;resizable=1;rotatable=1;deletable=1;editable=1;connectable=1;" parent="1" vertex="1">
          <mxGeometry x="275" y="815" width="120" height="580" as="geometry" />
        </mxCell>
        <mxCell id="u-6amZHOYb5FqeuUZx1L-22" value="" style="html=1;points=[];perimeter=orthogonalPerimeter;rounded=0;shadow=0;comic=0;labelBackgroundColor=none;strokeWidth=1;fontFamily=Verdana;fontSize=12;align=center;fillColor=#d5e8d4;strokeColor=#82b366;" parent="1" vertex="1">
          <mxGeometry x="95" y="930" width="10" height="410" as="geometry" />
        </mxCell>
        <mxCell id="u-6amZHOYb5FqeuUZx1L-32" style="edgeStyle=orthogonalEdgeStyle;curved=1;orthogonalLoop=1;jettySize=auto;html=1;exitX=0.5;exitY=1;exitDx=0;exitDy=0;entryX=0.5;entryY=0;entryDx=0;entryDy=0;strokeColor=default;startArrow=none;startFill=0;endArrow=open;endFill=0;" parent="1" source="u-6amZHOYb5FqeuUZx1L-25" target="u-6amZHOYb5FqeuUZx1L-31" edge="1">
          <mxGeometry relative="1" as="geometry" />
        </mxCell>
        <mxCell id="u-6amZHOYb5FqeuUZx1L-25" value="" style="ellipse;fillColor=#dae8fc;strokeWidth=1;strokeColor=#6c8ebf;" parent="1" vertex="1">
          <mxGeometry x="-840" y="800" width="50" height="50" as="geometry" />
        </mxCell>
        <mxCell id="u-6amZHOYb5FqeuUZx1L-26" value="" style="ellipse;html=1;shape=endState;fillColor=#dae8fc;strokeWidth=1;strokeColor=#6c8ebf;" parent="1" vertex="1">
          <mxGeometry x="-821.5" y="2585" width="30" height="30" as="geometry" />
        </mxCell>
        <mxCell id="u-6amZHOYb5FqeuUZx1L-36" style="edgeStyle=orthogonalEdgeStyle;curved=1;orthogonalLoop=1;jettySize=auto;html=1;entryX=1;entryY=0.5;entryDx=0;entryDy=0;strokeColor=default;fontSize=14;startArrow=none;startFill=0;endArrow=open;endFill=0;" parent="1" source="u-6amZHOYb5FqeuUZx1L-29" target="u-6amZHOYb5FqeuUZx1L-33" edge="1">
          <mxGeometry relative="1" as="geometry" />
        </mxCell>
        <mxCell id="u-6amZHOYb5FqeuUZx1L-37" style="edgeStyle=orthogonalEdgeStyle;orthogonalLoop=1;jettySize=auto;html=1;exitX=1;exitY=0.5;exitDx=0;exitDy=0;entryX=0;entryY=0.5;entryDx=0;entryDy=0;strokeColor=default;fontSize=14;startArrow=none;startFill=0;endArrow=open;endFill=0;rounded=0;" parent="1" source="u-6amZHOYb5FqeuUZx1L-29" target="u-6amZHOYb5FqeuUZx1L-34" edge="1">
          <mxGeometry relative="1" as="geometry" />
        </mxCell>
        <mxCell id="u-6amZHOYb5FqeuUZx1L-29" value="" style="rhombus;labelBackgroundColor=none;strokeWidth=1;fillColor=#fff2cc;strokeColor=#d6b656;" parent="1" vertex="1">
          <mxGeometry x="-834" y="1060" width="39" height="40" as="geometry" />
        </mxCell>
        <mxCell id="u-6amZHOYb5FqeuUZx1L-44" style="edgeStyle=orthogonalEdgeStyle;rounded=0;orthogonalLoop=1;jettySize=auto;html=1;strokeColor=default;fontSize=15;startArrow=none;startFill=0;endArrow=open;endFill=0;" parent="1" source="u-6amZHOYb5FqeuUZx1L-30" edge="1">
          <mxGeometry relative="1" as="geometry">
            <mxPoint x="-809" y="1330" as="targetPoint" />
          </mxGeometry>
        </mxCell>
        <mxCell id="u-6amZHOYb5FqeuUZx1L-30" value="" style="rhombus;labelBackgroundColor=none;strokeWidth=1;fillColor=#fff2cc;strokeColor=#d6b656;" parent="1" vertex="1">
          <mxGeometry x="-829" y="1180" width="39" height="40" as="geometry" />
        </mxCell>
        <mxCell id="u-6amZHOYb5FqeuUZx1L-35" style="edgeStyle=orthogonalEdgeStyle;curved=1;orthogonalLoop=1;jettySize=auto;html=1;exitX=0.5;exitY=1;exitDx=0;exitDy=0;entryX=0.5;entryY=0;entryDx=0;entryDy=0;strokeColor=default;fontSize=14;startArrow=none;startFill=0;endArrow=open;endFill=0;" parent="1" source="u-6amZHOYb5FqeuUZx1L-31" target="u-6amZHOYb5FqeuUZx1L-29" edge="1">
          <mxGeometry relative="1" as="geometry" />
        </mxCell>
        <mxCell id="u-6amZHOYb5FqeuUZx1L-31" value="&lt;font style=&quot;font-size: 14px;&quot;&gt;&lt;span style=&quot;text-align: right; font-family: ArialMT;&quot;&gt;1. Determine if&amp;nbsp;&lt;/span&gt;&lt;span style=&quot;text-align: right; font-family: Calibri;&quot;&gt;inDuration&amp;nbsp;&lt;/span&gt;&lt;span style=&quot;text-align: right; background-color: initial; font-family: Calibri;&quot;&gt;parameter&amp;nbsp;&lt;/span&gt;&lt;span style=&quot;text-align: right; background-color: initial; font-family: ArialMT;&quot;&gt;is not empty&lt;/span&gt;&lt;/font&gt;" style="rounded=1;whiteSpace=wrap;html=1;labelBackgroundColor=none;strokeWidth=1;fillColor=#fff2cc;strokeColor=#d6b656;" parent="1" vertex="1">
          <mxGeometry x="-915" y="910" width="200" height="60" as="geometry" />
        </mxCell>
        <mxCell id="u-6amZHOYb5FqeuUZx1L-41" style="edgeStyle=orthogonalEdgeStyle;rounded=0;orthogonalLoop=1;jettySize=auto;html=1;exitX=0.5;exitY=1;exitDx=0;exitDy=0;entryX=0;entryY=0.5;entryDx=0;entryDy=0;strokeColor=default;fontSize=14;startArrow=none;startFill=0;endArrow=open;endFill=0;" parent="1" source="u-6amZHOYb5FqeuUZx1L-33" target="u-6amZHOYb5FqeuUZx1L-30" edge="1">
          <mxGeometry relative="1" as="geometry" />
        </mxCell>
        <mxCell id="u-6amZHOYb5FqeuUZx1L-33" value="&lt;font style=&quot;font-size: 14px;&quot;&gt;&lt;span style=&quot;background-color: initial; font-family: ArialMT;&quot;&gt;1a) set duration to&lt;br&gt;i&lt;/span&gt;&lt;span style=&quot;background-color: initial; font-family: Calibri;&quot;&gt;nDuration parameter&amp;nbsp;&lt;/span&gt;&lt;/font&gt;" style="rounded=1;whiteSpace=wrap;html=1;labelBackgroundColor=none;strokeWidth=1;fillColor=#fff2cc;strokeColor=#d6b656;" parent="1" vertex="1">
          <mxGeometry x="-1150" y="1050" width="200" height="60" as="geometry" />
        </mxCell>
        <mxCell id="u-6amZHOYb5FqeuUZx1L-40" style="edgeStyle=orthogonalEdgeStyle;rounded=0;orthogonalLoop=1;jettySize=auto;html=1;entryX=1;entryY=0.5;entryDx=0;entryDy=0;strokeColor=default;fontSize=14;startArrow=none;startFill=0;endArrow=open;endFill=0;exitX=0.5;exitY=1;exitDx=0;exitDy=0;" parent="1" source="u-6amZHOYb5FqeuUZx1L-34" target="u-6amZHOYb5FqeuUZx1L-30" edge="1">
          <mxGeometry relative="1" as="geometry" />
        </mxCell>
        <mxCell id="u-6amZHOYb5FqeuUZx1L-34" value="&lt;font style=&quot;font-size: 14px;&quot;&gt;&lt;span style=&quot;background-color: initial; font-family: ArialMT;&quot;&gt;1a) set duration to&lt;br&gt;&lt;/span&gt;&lt;span style=&quot;background-color: initial;&quot;&gt;&lt;font face=&quot;ArialMT&quot;&gt;default (10 seconds)&lt;/font&gt;&lt;/span&gt;&lt;span style=&quot;background-color: initial; font-family: Calibri;&quot;&gt;&amp;nbsp;&lt;/span&gt;&lt;/font&gt;" style="rounded=1;whiteSpace=wrap;html=1;labelBackgroundColor=none;strokeWidth=1;fillColor=#fff2cc;strokeColor=#d6b656;" parent="1" vertex="1">
          <mxGeometry x="-700" y="1050" width="200" height="60" as="geometry" />
        </mxCell>
        <mxCell id="u-6amZHOYb5FqeuUZx1L-38" value="[NOT NULL]" style="text;html=1;align=center;verticalAlign=middle;resizable=0;points=[];autosize=1;strokeColor=none;fillColor=none;fontSize=14;" parent="1" vertex="1">
          <mxGeometry x="-930" y="1045" width="100" height="30" as="geometry" />
        </mxCell>
        <mxCell id="u-6amZHOYb5FqeuUZx1L-39" value="[NULL]" style="text;html=1;align=center;verticalAlign=middle;resizable=0;points=[];autosize=1;strokeColor=none;fillColor=none;fontSize=14;labelBackgroundColor=none;strokeWidth=1;" parent="1" vertex="1">
          <mxGeometry x="-790" y="1045" width="70" height="30" as="geometry" />
        </mxCell>
        <mxCell id="u-6amZHOYb5FqeuUZx1L-59" style="edgeStyle=orthogonalEdgeStyle;rounded=0;orthogonalLoop=1;jettySize=auto;html=1;entryX=0.5;entryY=0;entryDx=0;entryDy=0;strokeColor=default;fontFamily=Helvetica;fontSize=16;startArrow=none;startFill=0;endArrow=open;endFill=0;exitX=0.5;exitY=1;exitDx=0;exitDy=0;" parent="1" source="u-6amZHOYb5FqeuUZx1L-83" target="u-6amZHOYb5FqeuUZx1L-57" edge="1">
          <mxGeometry relative="1" as="geometry">
            <mxPoint x="-823.5" y="1454.9999999999995" as="sourcePoint" />
          </mxGeometry>
        </mxCell>
        <mxCell id="u-6amZHOYb5FqeuUZx1L-68" style="edgeStyle=orthogonalEdgeStyle;rounded=0;orthogonalLoop=1;jettySize=auto;html=1;exitX=0.5;exitY=1;exitDx=0;exitDy=0;entryX=0.472;entryY=-0.013;entryDx=0;entryDy=0;entryPerimeter=0;strokeColor=default;fontFamily=Helvetica;fontSize=16;startArrow=none;startFill=0;endArrow=open;endFill=0;" parent="1" source="u-6amZHOYb5FqeuUZx1L-56" target="u-6amZHOYb5FqeuUZx1L-58" edge="1">
          <mxGeometry relative="1" as="geometry" />
        </mxCell>
        <mxCell id="u-6amZHOYb5FqeuUZx1L-56" value="&lt;p style=&quot;font-size: 16px;&quot;&gt;&lt;font style=&quot;font-size: 16px; font-weight: normal;&quot;&gt;&lt;span style=&quot;text-align: right; font-family: ArialMT;&quot;&gt;4.&amp;nbsp;&lt;/span&gt;&lt;/font&gt;&lt;span style=&quot;font-family: ArialMT;&quot;&gt;Determine advertising category based on ProductList and Product Category&amp;nbsp;determined earlier&amp;nbsp;&lt;/span&gt;&lt;span style=&quot;background-color: initial; font-family: ArialMT;&quot;&gt;via&amp;nbsp;&lt;/span&gt;&lt;span style=&quot;background-color: initial; font-family: Verdana;&quot;&gt;getCategoryRelatedAdvertisement()&lt;/span&gt;&lt;/p&gt;" style="rounded=1;whiteSpace=wrap;html=1;labelBackgroundColor=none;strokeWidth=1;fillColor=#e1d5e7;strokeColor=#9673a6;" parent="1" vertex="1">
          <mxGeometry x="-1038" y="1755" width="460" height="110" as="geometry" />
        </mxCell>
        <mxCell id="u-6amZHOYb5FqeuUZx1L-60" style="edgeStyle=orthogonalEdgeStyle;rounded=0;orthogonalLoop=1;jettySize=auto;html=1;strokeColor=default;fontFamily=Helvetica;fontSize=16;startArrow=none;startFill=0;endArrow=open;endFill=0;" parent="1" source="u-6amZHOYb5FqeuUZx1L-57" target="u-6amZHOYb5FqeuUZx1L-56" edge="1">
          <mxGeometry relative="1" as="geometry" />
        </mxCell>
        <mxCell id="u-6amZHOYb5FqeuUZx1L-57" value="&lt;p style=&quot;font-size: 16px;&quot;&gt;3. Get Product Category Based on ProductDatabase via&amp;nbsp;&lt;span style=&quot;&quot;&gt;requestProductCategory()&lt;/span&gt;&lt;/p&gt;" style="whiteSpace=wrap;html=1;fillColor=#e1d5e7;strokeColor=#9673a6;rounded=1;labelBackgroundColor=none;strokeWidth=1;fontSize=15;" parent="1" vertex="1">
          <mxGeometry x="-969" y="1550" width="320" height="110" as="geometry" />
        </mxCell>
        <mxCell id="u-6amZHOYb5FqeuUZx1L-70" style="edgeStyle=orthogonalEdgeStyle;rounded=0;orthogonalLoop=1;jettySize=auto;html=1;strokeColor=default;fontFamily=Helvetica;fontSize=16;startArrow=none;startFill=0;endArrow=open;endFill=0;exitX=0.477;exitY=0.995;exitDx=0;exitDy=0;exitPerimeter=0;" parent="1" source="u-6amZHOYb5FqeuUZx1L-58" target="u-6amZHOYb5FqeuUZx1L-69" edge="1">
          <mxGeometry relative="1" as="geometry" />
        </mxCell>
        <mxCell id="u-6amZHOYb5FqeuUZx1L-58" value="&lt;font style=&quot;font-size: 17px;&quot;&gt;&lt;span style=&quot;font-family: ArialMT; background-color: initial;&quot;&gt;5. get Advertisement via the API by providing the&lt;/span&gt;&lt;br&gt;&lt;/font&gt;&lt;div style=&quot;font-size: 17px;&quot; title=&quot;Page 1&quot; class=&quot;page&quot;&gt;&lt;div style=&quot;&quot; class=&quot;section&quot;&gt;&lt;div style=&quot;&quot; class=&quot;layoutArea&quot;&gt;&lt;div style=&quot;&quot; class=&quot;column&quot;&gt;&lt;p style=&quot;&quot;&gt;&lt;font style=&quot;font-size: 17px;&quot;&gt;&lt;span style=&quot;font-family: ArialMT;&quot;&gt;Product List and Product Category determined earlier using&lt;br&gt;&lt;/span&gt;&lt;span style=&quot;font-family: Calibri;&quot;&gt;AdversingAPI.getAdversement(adversingCategory)&amp;nbsp;&lt;/span&gt;&lt;/font&gt;&lt;/p&gt;&lt;/div&gt;&lt;/div&gt;&lt;/div&gt;  &lt;/div&gt;" style="whiteSpace=wrap;html=1;fillColor=#e1d5e7;strokeColor=#9673a6;rounded=1;labelBackgroundColor=none;strokeWidth=1;fontFamily=Helvetica;fontSize=16;" parent="1" vertex="1">
          <mxGeometry x="-1064" y="1935" width="540" height="100" as="geometry" />
        </mxCell>
        <mxCell id="u-6amZHOYb5FqeuUZx1L-65" value="&lt;b&gt;Activity Diagram&lt;br&gt;&lt;/b&gt;I&#39;m Adding an &lt;b&gt;advertisement&lt;/b&gt; function that triggers after the system gets the product list; it then search for the product category and display the related category advertisements" style="shape=note2;boundedLbl=1;whiteSpace=wrap;html=1;size=25;verticalAlign=top;align=left;labelBackgroundColor=none;strokeWidth=1;fontFamily=Helvetica;fontSize=16;fillColor=#f5f5f5;strokeColor=#666666;fontColor=#333333;" parent="1" vertex="1">
          <mxGeometry x="-1450" y="650" width="230" height="190" as="geometry" />
        </mxCell>
        <mxCell id="u-6amZHOYb5FqeuUZx1L-72" style="edgeStyle=orthogonalEdgeStyle;rounded=0;orthogonalLoop=1;jettySize=auto;html=1;entryX=0.5;entryY=0;entryDx=0;entryDy=0;strokeColor=default;fontFamily=Helvetica;fontSize=13;startArrow=none;startFill=0;endArrow=open;endFill=0;" parent="1" source="u-6amZHOYb5FqeuUZx1L-69" target="u-6amZHOYb5FqeuUZx1L-71" edge="1">
          <mxGeometry relative="1" as="geometry" />
        </mxCell>
        <mxCell id="u-6amZHOYb5FqeuUZx1L-69" value="6. While duration not expired&amp;nbsp;" style="whiteSpace=wrap;html=1;fontSize=16;fillColor=#ffe6cc;strokeColor=#d79b00;rounded=1;labelBackgroundColor=none;strokeWidth=1;fontFamily=Helvetica;" parent="1" vertex="1">
          <mxGeometry x="-912" y="2145" width="210" height="60" as="geometry" />
        </mxCell>
        <mxCell id="u-6amZHOYb5FqeuUZx1L-74" style="edgeStyle=orthogonalEdgeStyle;orthogonalLoop=1;jettySize=auto;html=1;strokeColor=default;fontFamily=Helvetica;fontSize=13;startArrow=none;startFill=0;endArrow=open;endFill=0;rounded=0;entryX=0.5;entryY=0;entryDx=0;entryDy=0;" parent="1" target="u-6amZHOYb5FqeuUZx1L-73" edge="1">
          <mxGeometry relative="1" as="geometry">
            <mxPoint x="-806.5294117647059" y="2345" as="sourcePoint" />
            <mxPoint x="-804.0588235294117" y="2415.055882352941" as="targetPoint" />
          </mxGeometry>
        </mxCell>
        <mxCell id="u-6amZHOYb5FqeuUZx1L-71" value="&lt;font style=&quot;font-size: 15px;&quot;&gt;7. Play Advertisement via&amp;nbsp;&lt;span style=&quot;background-color: initial;&quot;&gt;the &lt;/span&gt;&lt;span style=&quot;background-color: initial;&quot;&gt;playAdvertisement()&amp;nbsp;&lt;/span&gt;&lt;br&gt;&lt;/font&gt;" style="whiteSpace=wrap;html=1;fontSize=16;fillColor=#ffe6cc;strokeColor=#d79b00;rounded=1;labelBackgroundColor=none;strokeWidth=1;fontFamily=Helvetica;" parent="1" vertex="1">
          <mxGeometry x="-909" y="2285" width="205" height="60" as="geometry" />
        </mxCell>
        <mxCell id="u-6amZHOYb5FqeuUZx1L-77" style="edgeStyle=orthogonalEdgeStyle;orthogonalLoop=1;jettySize=auto;html=1;entryX=1;entryY=0.5;entryDx=0;entryDy=0;strokeColor=default;fontFamily=Helvetica;fontSize=13;startArrow=none;startFill=0;endArrow=open;endFill=0;curved=1;exitX=1;exitY=0.5;exitDx=0;exitDy=0;" parent="1" source="u-6amZHOYb5FqeuUZx1L-73" target="u-6amZHOYb5FqeuUZx1L-69" edge="1">
          <mxGeometry relative="1" as="geometry">
            <Array as="points">
              <mxPoint x="-554" y="2458" />
              <mxPoint x="-554" y="2175" />
            </Array>
          </mxGeometry>
        </mxCell>
        <mxCell id="u-6amZHOYb5FqeuUZx1L-78" value="[Duration Remaining]" style="edgeLabel;html=1;align=center;verticalAlign=middle;resizable=0;points=[];fontSize=13;fontFamily=Helvetica;" parent="u-6amZHOYb5FqeuUZx1L-77" vertex="1" connectable="0">
          <mxGeometry x="0.1091" y="-4" relative="1" as="geometry">
            <mxPoint as="offset" />
          </mxGeometry>
        </mxCell>
        <mxCell id="u-6amZHOYb5FqeuUZx1L-79" style="edgeStyle=orthogonalEdgeStyle;curved=1;orthogonalLoop=1;jettySize=auto;html=1;exitX=0.5;exitY=1;exitDx=0;exitDy=0;entryX=0.5;entryY=0;entryDx=0;entryDy=0;strokeColor=default;fontFamily=Helvetica;fontSize=13;startArrow=none;startFill=0;endArrow=open;endFill=0;" parent="1" source="u-6amZHOYb5FqeuUZx1L-73" target="u-6amZHOYb5FqeuUZx1L-26" edge="1">
          <mxGeometry relative="1" as="geometry" />
        </mxCell>
        <mxCell id="u-6amZHOYb5FqeuUZx1L-80" value="[Duration Expired]" style="edgeLabel;html=1;align=center;verticalAlign=middle;resizable=0;points=[];fontSize=13;fontFamily=Helvetica;" parent="u-6amZHOYb5FqeuUZx1L-79" vertex="1" connectable="0">
          <mxGeometry x="-0.0824" y="-2" relative="1" as="geometry">
            <mxPoint y="1" as="offset" />
          </mxGeometry>
        </mxCell>
        <mxCell id="u-6amZHOYb5FqeuUZx1L-73" value="" style="rhombus;whiteSpace=wrap;html=1;fontSize=16;fillColor=#ffe6cc;strokeColor=#d79b00;rounded=1;labelBackgroundColor=none;strokeWidth=1;fontFamily=Helvetica;" parent="1" vertex="1">
          <mxGeometry x="-836" y="2430" width="60" height="57" as="geometry" />
        </mxCell>
        <mxCell id="u-6amZHOYb5FqeuUZx1L-83" value="&lt;p style=&quot;font-size: 16px;&quot;&gt;&lt;font style=&quot;font-size: 16px;&quot;&gt;2. Get Product List Based on ProductDatabase via&lt;/font&gt;&lt;/p&gt;&lt;font style=&quot;font-size: 16px;&quot;&gt;getProductLists()&lt;/font&gt;" style="whiteSpace=wrap;html=1;fillColor=#d5e8d4;strokeColor=#82b366;rounded=1;labelBackgroundColor=none;strokeWidth=1;fontSize=15;" parent="1" vertex="1">
          <mxGeometry x="-979.5" y="1330" width="340" height="110" as="geometry" />
        </mxCell>
      </root>
    </mxGraphModel>
  </diagram>
</mxfile>
